<svg width="24" height="24" viewBox="0 0 24 24" fill="none" xmlns="http://www.w3.org/2000/svg">
<path fill-rule="evenodd" clip-rule="evenodd" d="M7.9334 9.57157C7.50022 10.1961 7.28363 10.9482 7.28363 11.8291H7.28101C7.28101 12.9388 7.59605 13.7973 8.22612 14.4021C8.8562 15.0069 9.66218 15.3093 10.6414 15.3093C11.2781 15.3093 11.8136 15.2462 12.2468 15.1174C12.9333 14.9254 13.633 14.4416 14.3471 13.6632C14.3983 13.7276 14.4875 13.8512 14.6162 14.0379C14.7422 14.2233 14.8341 14.3456 14.8918 14.4113C14.9483 14.4744 15.0441 14.577 15.178 14.7164C15.3119 14.857 15.4668 15.0043 15.6453 15.1568C15.8619 15.2462 16.047 15.2331 16.1992 15.1174C16.2885 15.0411 16.8608 14.5454 17.9188 13.6251C18.0212 13.5488 18.0711 13.4594 18.0711 13.3582C18.0711 13.2688 18.033 13.1662 17.9569 13.0518L17.5185 12.4681C17.4292 12.3471 17.3347 12.1499 17.2428 11.8738C17.1457 11.6016 17.0984 11.2992 17.0984 10.9666V6.33849C17.0984 6.28853 17.0932 6.1255 17.08 5.85202C17.0669 5.57854 17.0485 5.39842 17.0223 5.31558C16.9987 5.23275 16.9593 5.08287 16.9068 4.86855C16.8569 4.6503 16.8018 4.48463 16.7361 4.36893C16.6744 4.25323 16.5865 4.12438 16.4775 3.97712C16.3686 3.83118 16.2518 3.69313 16.1257 3.56559C15.3093 2.81353 14.1764 2.4375 12.7259 2.4375H12.2494C11.1179 2.50061 10.1269 2.80696 9.28019 3.35523C8.43484 3.9035 7.90321 4.74496 7.68662 5.87963C7.67349 5.93091 7.66693 5.9743 7.66693 6.01374C7.66693 6.19255 7.77588 6.30694 7.99116 6.35953L10.1872 6.62775C10.3907 6.58962 10.518 6.44236 10.5705 6.18729C10.6585 5.77971 10.8554 5.46021 11.1612 5.23012C11.4671 4.99872 11.8307 4.86724 12.2508 4.8278H12.3991C12.9727 4.8278 13.3928 5.01976 13.6592 5.40368C13.8365 5.68241 13.9283 6.232 13.9283 7.04717V7.37192C13.1512 7.43503 12.5894 7.485 12.2481 7.52444C11.2426 7.65197 10.396 7.86234 9.70943 8.15554C8.95728 8.47504 8.36658 8.94705 7.9334 9.57157ZM10.9394 12.6416C10.6913 12.3392 10.5679 11.9421 10.5679 11.4452L10.5666 11.4465C10.5666 10.3499 11.1258 9.64257 12.2468 9.32439C12.6275 9.22315 13.188 9.17056 13.927 9.17056V9.64783C13.927 10.0554 13.9244 10.3499 13.9178 10.5287C13.9113 10.7076 13.8732 10.9403 13.8036 11.2256C13.7327 11.5122 13.6277 11.7765 13.4886 12.0197C13.1959 12.568 12.7811 12.9112 12.2481 13.0518C12.2219 13.0518 12.1733 13.0584 12.1037 13.0716C12.0328 13.0834 11.9803 13.0886 11.941 13.0886C11.5209 13.0886 11.1888 12.9401 10.9394 12.6416Z" fill="#353E47"/>
<path d="M18.6998 17.45C18.6512 17.5013 18.6118 17.5513 18.5856 17.6039V17.6065C18.5725 17.6315 18.5672 17.6499 18.5672 17.663C18.5541 17.6893 18.5593 17.713 18.5856 17.7393C18.6118 17.7656 18.6604 17.7787 18.7392 17.7787C19.0056 17.7406 19.2984 17.7038 19.6187 17.6644C19.9101 17.6381 20.1647 17.6249 20.38 17.6249C20.9668 17.6249 21.3225 17.7025 21.4498 17.8537C21.4997 17.9168 21.526 18.0194 21.526 18.16C21.526 18.5939 21.2923 19.3644 20.8197 20.4741C20.7817 20.5753 20.7987 20.645 20.8775 20.6844C20.9011 20.6963 20.9274 20.7028 20.9536 20.7028C21.0048 20.7028 21.0613 20.6792 21.1269 20.6266C21.5575 20.2571 21.8948 19.768 22.1377 19.1632C22.3792 18.5584 22.5 18.0325 22.5 17.5855V17.4514C22.5 17.2988 22.4763 17.1845 22.4238 17.1095C22.3109 16.9675 21.9657 16.8729 21.3921 16.8203C21.2792 16.7953 21.1571 16.7874 21.0298 16.8005C20.5716 16.8137 20.1004 16.8847 19.6187 17.0109C19.3246 17.0872 19.0188 17.2344 18.6998 17.45Z" fill="#FF9900"/>
<path d="M1.84392 17.2593C1.70346 17.1699 1.60239 17.1765 1.53938 17.2791C1.51313 17.3172 1.5 17.354 1.5 17.3934C1.5 17.4566 1.53938 17.5223 1.61683 17.5841C3.01744 18.8463 4.60051 19.8258 6.37261 20.52C8.14077 21.2142 10.0179 21.5627 12.0039 21.5627C13.2903 21.5627 14.6069 21.3825 15.9551 21.0275C17.3045 20.6699 18.5266 20.1663 19.62 19.5155C19.9771 19.2999 20.2698 19.1079 20.4995 18.9423C20.6767 18.8147 20.7122 18.6741 20.6045 18.5215C20.4956 18.3677 20.3459 18.3309 20.1543 18.4071C20.1084 18.4295 20.0353 18.4614 19.9338 18.5055L19.897 18.5215L19.6213 18.6359C17.189 19.5668 14.7251 20.0335 12.231 20.0335C8.48862 20.0335 5.02582 19.1079 1.84392 17.2593Z" fill="#FF9900"/>
</svg>
