<svg width="16" height="16" viewBox="0 0 16 16" fill="none" xmlns="http://www.w3.org/2000/svg">
<g clip-path="url(#clip0_441_372)">
<path d="M8 16C12.4183 16 16 12.4183 16 8C16 3.58172 12.4183 0 8 0C3.58172 0 0 3.58172 0 8C0 12.4183 3.58172 16 8 16Z" fill="#0052B4"/>
<path d="M8.00002 3.13043L8.25905 3.92759H9.09718L8.41908 4.42024L8.67811 5.2174L8.00002 4.72471L7.32189 5.2174L7.58093 4.42024L6.90283 3.92759H7.74099L8.00002 3.13043Z" fill="#FFDA44"/>
<path d="M4.5567 4.55667L5.30357 4.93717L5.89623 4.34454L5.76507 5.17236L6.51192 5.55289L5.68407 5.68401L5.55295 6.51189L5.17242 5.76504L4.3446 5.8962L4.93726 5.30354L4.5567 4.55667Z" fill="#FFDA44"/>
<path d="M3.13049 7.99999L3.92765 7.74096V6.9028L4.42027 7.58093L5.21746 7.3219L4.72474 7.99999L5.21746 8.67808L4.42027 8.41908L3.92765 9.09718V8.25902L3.13049 7.99999Z" fill="#FFDA44"/>
<path d="M4.5567 11.4433L4.93723 10.6964L4.3446 10.1038L5.17245 10.235L5.55292 9.48813L5.68407 10.316L6.51189 10.4471L5.76514 10.8276L5.89623 11.6554L5.30357 11.0628L4.5567 11.4433Z" fill="#FFDA44"/>
<path d="M8.00002 12.8696L7.74096 12.0724H6.90283L7.58096 11.5797L7.32189 10.7827L8.00002 11.2753L8.67811 10.7827L8.41908 11.5797L9.09718 12.0724H8.25902L8.00002 12.8696Z" fill="#FFDA44"/>
<path d="M11.4433 11.4433L10.6965 11.0628L10.1038 11.6555L10.2349 10.8276L9.48816 10.4471L10.316 10.316L10.4471 9.48813L10.8276 10.235L11.6554 10.1038L11.0628 10.6965L11.4433 11.4433Z" fill="#FFDA44"/>
<path d="M12.8696 7.99999L12.0725 8.25902V9.09718L11.5798 8.41905L10.7827 8.67808L11.2754 7.99999L10.7827 7.3219L11.5798 7.58093L12.0725 6.9028V7.74099L12.8696 7.99999Z" fill="#FFDA44"/>
<path d="M11.4433 4.55667L11.0628 5.30354L11.6554 5.8962L10.8276 5.76501L10.4471 6.51186L10.316 5.68401L9.48816 5.55286L10.2349 5.17236L10.1038 4.34457L10.6965 4.9372L11.4433 4.55667Z" fill="#FFDA44"/>
</g>
<defs>
<clipPath id="clip0_441_372">
<rect width="16" height="16" fill="white"/>
</clipPath>
</defs>
</svg>
