<svg width="24" height="24" viewBox="0 0 24 24" fill="none" xmlns="http://www.w3.org/2000/svg">
<path d="M19.2 21H4.80002C4.56133 21 4.33241 20.9052 4.16363 20.7364C3.99485 20.5676 3.90002 20.3387 3.90002 20.1V3.9C3.90002 3.66131 3.99485 3.43239 4.16363 3.2636C4.33241 3.09482 4.56133 3 4.80002 3H19.2C19.4387 3 19.6676 3.09482 19.8364 3.2636C20.0052 3.43239 20.1 3.66131 20.1 3.9V20.1C20.1 20.3387 20.0052 20.5676 19.8364 20.7364C19.6676 20.9052 19.4387 21 19.2 21ZM18.3 19.2V4.8H5.70002V19.2H18.3ZM8.40002 7.5H15.6V9.3H8.40002V7.5ZM8.40002 11.1H15.6V12.9H8.40002V11.1ZM8.40002 14.7H15.6V16.5H8.40002V14.7Z" fill="#525866"/>
</svg>
