<svg width="16" height="16" viewBox="0 0 16 16" fill="none" xmlns="http://www.w3.org/2000/svg">
<path fill-rule="evenodd" clip-rule="evenodd" d="M8 13C10.7614 13 13 10.7614 13 8C13 5.23858 10.7614 3 8 3C5.23858 3 3 5.23858 3 8C3 10.7614 5.23858 13 8 13ZM8.89268 10.5669L8.97252 10.2405C8.93119 10.2599 8.86456 10.2821 8.77319 10.3073C8.68157 10.3326 8.59912 10.3454 8.52665 10.3454C8.37229 10.3454 8.26362 10.3201 8.20052 10.2693C8.13789 10.2184 8.10665 10.1227 8.10665 9.98262C8.10665 9.9271 8.11607 9.84434 8.13579 9.73602C8.15489 9.62699 8.17686 9.53009 8.20129 9.44533L8.49935 8.39007C8.52855 8.29322 8.54857 8.18675 8.55933 8.07055C8.57034 7.9546 8.57546 7.87348 8.57546 7.82744C8.57546 7.60491 8.49746 7.42433 8.34141 7.28503C8.18536 7.14583 7.96315 7.07623 7.67517 7.07623C7.51492 7.07623 7.34551 7.10471 7.16621 7.1616C6.98691 7.21835 6.79946 7.28672 6.60337 7.36656L6.52332 7.6932C6.58175 7.67159 6.65135 7.64834 6.73278 7.62427C6.81386 7.6003 6.89339 7.58791 6.97078 7.58791C7.12877 7.58791 7.23519 7.61485 7.29096 7.6679C7.34674 7.72112 7.37475 7.81576 7.37475 7.95107C7.37475 8.02589 7.36589 8.10901 7.3475 8.19935C7.32937 8.29025 7.30674 8.38638 7.28011 8.48784L6.98076 9.54735C6.95413 9.65869 6.93467 9.7583 6.92243 9.84675C6.91029 9.93509 6.90445 10.0218 6.90445 10.1061C6.90445 10.3239 6.98491 10.5034 7.14577 10.645C7.30664 10.7861 7.53218 10.8571 7.82215 10.8571C8.01098 10.8571 8.17671 10.8325 8.31934 10.7828C8.46181 10.7334 8.65315 10.6614 8.89268 10.5669ZM8.83957 6.28016C8.97882 6.15105 9.04811 5.99403 9.04811 5.81017C9.04811 5.62673 8.97892 5.4694 8.83957 5.33865C8.70068 5.20826 8.53326 5.14286 8.33752 5.14286C8.14116 5.14286 7.97308 5.2081 7.83286 5.33865C7.69263 5.4694 7.62237 5.62667 7.62237 5.81017C7.62237 5.99403 7.69263 6.151 7.83286 6.28016C7.97334 6.40973 8.14111 6.47457 8.33752 6.47457C8.53331 6.47457 8.70068 6.40973 8.83957 6.28016Z" fill="#CACFD8"/>
</svg>
