<svg width="24" height="24" viewBox="0 0 24 24" fill="none" xmlns="http://www.w3.org/2000/svg">
<path d="M12 21C7.0293 21 3 16.9707 3 12C3 7.9698 5.6487 4.5588 9.3 3.4122V5.3238C7.75283 5.95204 6.47202 7.09834 5.67665 8.5666C4.88129 10.0349 4.62079 11.7339 4.93973 13.373C5.25866 15.0121 6.13721 16.4895 7.42509 17.5524C8.71297 18.6153 10.3301 19.1977 12 19.2C13.4344 19.2 14.8361 18.7716 16.0256 17.9699C17.215 17.1682 18.138 16.0296 18.6762 14.7H20.5878C19.4412 18.3513 16.0302 21 12 21ZM20.955 12.9H11.1V3.045C11.3961 3.0153 11.6967 3 12 3C16.9707 3 21 7.0293 21 12C21 12.3033 20.9847 12.6039 20.955 12.9ZM12.9 4.8558V11.1H19.1442C18.9439 9.51385 18.2216 8.0394 17.0911 6.90891C15.9606 5.77842 14.4862 5.05613 12.9 4.8558Z" fill="#525866"/>
</svg>
