<svg width="24" height="24" viewBox="0 0 24 24" fill="none" xmlns="http://www.w3.org/2000/svg">
<path d="M1.80284 13.1736C1.74643 13.1764 1.69106 13.1566 1.64803 13.1178C1.6113 13.0712 1.59424 13.0107 1.6008 12.9504V7.26104C1.59424 7.2008 1.6113 7.14028 1.64803 7.09371C1.69159 7.05857 1.74564 7.04184 1.80022 7.0463H2.38271C2.49291 7.03458 2.59209 7.11686 2.60836 7.23316L2.66608 7.45627C2.83375 7.28419 3.03185 7.14865 3.24857 7.05745C3.47029 6.96207 3.70722 6.91271 3.94652 6.91243C4.42353 6.8957 4.87955 7.12132 5.17447 7.52041C5.4993 7.99621 5.66067 8.57602 5.63102 9.16309C5.63994 9.58924 5.56306 10.0123 5.40537 10.4042C5.27523 10.7305 5.06375 11.013 4.79402 11.2213C4.53321 11.4104 4.22281 11.508 3.90716 11.5002C3.69279 11.5013 3.47974 11.4637 3.27744 11.3887C3.09141 11.3223 2.91955 11.218 2.77104 11.0819V12.956C2.77681 13.0157 2.76107 13.0757 2.72643 13.1234C2.68156 13.1602 2.62515 13.1769 2.569 13.1708L1.80284 13.1736ZM3.56868 10.5631C3.82792 10.5829 4.07876 10.4597 4.23251 10.2368C4.39598 9.92503 4.46997 9.56916 4.44505 9.21329C4.47023 8.85408 4.39729 8.49486 4.23514 8.1786C4.08086 7.95353 3.82739 7.82999 3.56606 7.8523C3.28872 7.85258 3.01689 7.93234 2.77891 8.08378V10.3289C3.01505 10.485 3.28793 10.567 3.56606 10.5659L3.56868 10.5631Z" fill="#00A8E1"/>
<path d="M6.62808 11.4109C6.53415 11.4296 6.44363 11.3638 6.42605 11.2636C6.42211 11.2413 6.42211 11.2184 6.42605 11.1961V7.26096C6.41949 7.20072 6.43654 7.1402 6.47328 7.09363C6.51683 7.05849 6.57088 7.04176 6.62546 7.04622H7.20533C7.31553 7.0345 7.41471 7.11678 7.43098 7.23308L7.53593 7.69046C7.70832 7.47599 7.91429 7.29471 8.14466 7.15499C8.33253 7.0504 8.54139 6.99602 8.75339 6.99602H8.86622C8.92316 6.99072 8.98009 7.00745 9.02627 7.04343C9.06301 7.09 9.08006 7.15052 9.0735 7.21076V7.93031C9.07796 7.98832 9.06222 8.04577 9.0289 8.09206C8.98508 8.13111 8.92814 8.14924 8.87147 8.14226H8.72715C8.66759 8.14226 8.59255 8.14226 8.5015 8.14226C8.34985 8.14561 8.19871 8.1643 8.0502 8.19804C7.8954 8.22844 7.74426 8.27613 7.5989 8.34028V11.1989C7.6031 11.2569 7.58736 11.3144 7.5543 11.3607C7.51048 11.3997 7.45354 11.4179 7.39687 11.4109H6.62808Z" fill="#00A8E1"/>
<path d="M10.2361 6.36587C10.0571 6.37535 9.8815 6.31149 9.74526 6.18738C9.61874 6.0616 9.55075 5.88311 9.55889 5.69932C9.54996 5.51441 9.61795 5.3348 9.74526 5.20847C10.033 4.96388 10.4419 4.96388 10.7296 5.20847C10.8562 5.33425 10.9241 5.51274 10.916 5.69653C10.9241 5.88032 10.8562 6.05881 10.7296 6.18459C10.5931 6.31037 10.4165 6.37535 10.2361 6.36587ZM9.85026 11.4138C9.75629 11.4325 9.66572 11.3667 9.64814 11.2666C9.6442 11.2443 9.6442 11.2214 9.64814 11.1991V7.26111C9.64157 7.20087 9.65864 7.14035 9.69539 7.09378C9.73896 7.05864 9.79304 7.0419 9.84764 7.04637H10.622C10.6782 7.04023 10.7346 7.05696 10.7795 7.09378C10.8142 7.14147 10.8299 7.20143 10.8241 7.26111V11.1991C10.8286 11.2571 10.8128 11.3145 10.7795 11.3608C10.7357 11.3999 10.6787 11.418 10.622 11.411L9.85026 11.4138Z" fill="#00A8E1"/>
<path d="M12.0227 11.4107C11.9287 11.4293 11.8382 11.3635 11.8206 11.2634C11.8167 11.2411 11.8167 11.2182 11.8206 11.1959V7.26073C11.8141 7.20049 11.8311 7.13997 11.8679 7.0934C11.9114 7.05826 11.9655 7.04152 12.0201 7.04598H12.5999C12.7101 7.03427 12.8093 7.11654 12.8256 7.23284L12.8912 7.46432C13.1299 7.28946 13.3881 7.14722 13.66 7.04041C13.8843 6.9573 14.1202 6.91407 14.3579 6.91212C14.7714 6.87447 15.1687 7.09117 15.3812 7.4699C15.6207 7.29476 15.881 7.15419 16.1552 7.05156C16.3971 6.96594 16.6506 6.92271 16.9056 6.92327C17.2278 6.90263 17.5438 7.02367 17.7794 7.25794C17.9966 7.51118 18.1084 7.84724 18.089 8.18944V11.1987C18.0932 11.2567 18.0774 11.3142 18.0444 11.3605C18.0006 11.3995 17.9436 11.4176 17.887 11.4107H17.1234C17.0295 11.4293 16.939 11.3635 16.9214 11.2634C16.9174 11.2411 16.9174 11.2182 16.9214 11.1959V8.4516C16.9214 8.06311 16.7579 7.86872 16.4307 7.86872C16.1258 7.87234 15.8254 7.94876 15.5517 8.09183V11.1987C15.5562 11.2567 15.5405 11.3142 15.5071 11.3605C15.4633 11.3995 15.4064 11.4176 15.3497 11.4107H14.5783C14.4844 11.4293 14.3938 11.3635 14.3763 11.2634C14.3723 11.2411 14.3723 11.2182 14.3763 11.1959V8.4516C14.3763 8.06311 14.2128 7.86872 13.8856 7.86872C13.577 7.87067 13.2732 7.95015 12.9987 8.1002V11.1959C13.0029 11.2539 12.9872 11.3114 12.9541 11.3577C12.9103 11.3967 12.8534 11.4148 12.7967 11.4079L12.0227 11.4107Z" fill="#00A8E1"/>
<path d="M20.8965 11.5396C20.3311 11.5789 19.7756 11.3681 19.3616 10.9567C18.983 10.496 18.7938 9.89331 18.8368 9.28337C18.799 8.65112 18.9906 8.02724 19.3721 7.5403C19.7696 7.10411 20.3261 6.87291 20.8965 6.90721C21.3185 6.88044 21.7351 7.01737 22.0694 7.29208C22.3522 7.54866 22.5081 7.92935 22.4918 8.32398C22.511 8.71025 22.3376 9.07895 22.0353 9.29453C21.6283 9.54163 21.1621 9.65597 20.6945 9.62362C20.4295 9.62697 20.165 9.59517 19.9074 9.5288C19.9089 9.83725 20.0259 10.1323 20.2327 10.3487C20.4775 10.5334 20.7756 10.6212 21.075 10.597C21.2214 10.597 21.3678 10.5866 21.5131 10.5663C21.7131 10.5334 21.9109 10.4885 22.1061 10.4324H22.1534H22.1927C22.2838 10.4324 22.3292 10.4985 22.3292 10.6304V11.0237C22.3341 11.0903 22.3215 11.157 22.2924 11.2161C22.2552 11.2627 22.2058 11.2964 22.1507 11.3137C21.7493 11.4707 21.3242 11.5474 20.8965 11.5396ZM20.6342 8.85388C20.8407 8.86978 21.0471 8.82348 21.2298 8.72001C21.3552 8.62881 21.426 8.47403 21.4161 8.31283C21.4161 7.95389 21.2148 7.77457 20.8126 7.77457C20.2965 7.77457 19.9984 8.11119 19.9178 8.78416C20.1522 8.83185 20.3904 8.85527 20.6289 8.85388H20.6342Z" fill="#00A8E1"/>
<path d="M20.4741 16.2166C18.1756 18.0182 14.8434 18.9748 11.9755 18.9748C8.14313 18.9966 4.44089 17.4981 1.59298 14.7719C1.37782 14.5655 1.56936 14.2839 1.82912 14.4428C4.99295 16.363 8.5737 17.3715 12.2169 17.3684C14.9355 17.3531 17.6246 16.7682 20.1304 15.6477C20.5292 15.4719 20.8546 15.907 20.4741 16.2166Z" fill="#00A8E1"/>
<path d="M21.4423 15.0699C21.1484 14.6711 19.5006 14.8803 18.7581 14.9751C18.5324 15.003 18.4957 14.7966 18.7004 14.646C20.0123 13.6643 22.1717 13.9488 22.421 14.2779C22.6702 14.607 22.3554 16.9023 21.109 17.9983C20.9201 18.1657 20.7391 18.0764 20.823 17.8533C21.1038 17.1031 21.7256 15.4576 21.4423 15.0699Z" fill="#00A8E1"/>
</svg>
