<svg width="320" height="124" viewBox="0 0 320 124" fill="none" xmlns="http://www.w3.org/2000/svg">
<g clip-path="url(#clip0_449_96)">
<path d="M0 12C0 5.37259 5.37258 0 12 0H308C314.627 0 320 5.37258 320 12V112C320 118.627 314.627 124 308 124H12C5.37259 124 0 118.627 0 112V12Z" fill="#F5F7FA"/>
<ellipse cx="32" cy="32.0155" rx="12.7611" ry="12.7765" fill="url(#paint0_linear_449_96)"/>
<path d="M29.1551 24.5106L37.5629 22.8396C37.946 22.7635 38.3031 23.0566 38.3031 23.4472V36.3294C38.3031 37.4261 37.5362 38.3734 36.4635 38.6016L35.7207 38.7596C34.4268 39.0349 33.208 38.0482 33.208 36.7252C33.208 35.7933 33.8361 34.9785 34.7373 34.7413L36.8425 34.1873C37.1283 34.1121 37.3274 33.8538 37.3274 33.5583V27.5773C37.3274 27.3023 37.0748 27.0968 36.8056 27.1527L29.7993 28.6089C29.5837 28.6537 29.4292 28.8437 29.4292 29.0638V37.9955C29.4292 39.1951 28.5899 40.2311 27.4164 40.4801L26.9071 40.5881C25.5738 40.8709 24.3186 39.854 24.3186 38.4911C24.3186 37.6225 24.9032 36.8627 25.7428 36.6401L27.9464 36.0558C28.218 35.9838 28.4071 35.738 28.4071 35.457V25.422C28.4071 24.9786 28.7203 24.597 29.1551 24.5106Z" fill="url(#paint1_radial_449_96)"/>
<path fill-rule="evenodd" clip-rule="evenodd" d="M46 32C46 39.732 39.732 46 32 46C24.268 46 18 39.732 18 32C18 24.268 24.268 18 32 18C39.732 18 46 24.268 46 32ZM44.7611 32.0155C44.7611 39.0718 39.0477 44.792 32 44.792C24.9523 44.792 19.2389 39.0718 19.2389 32.0155C19.2389 24.9592 24.9523 19.2389 32 19.2389C39.0477 19.2389 44.7611 24.9592 44.7611 32.0155Z" fill="url(#paint2_radial_449_96)"/>
<ellipse cx="314" cy="12.0795" rx="65.4004" ry="65.4798" fill="url(#paint3_linear_449_96)"/>
<path d="M299.42 -26.3831L342.51 -34.9471C344.473 -35.3373 346.303 -33.8351 346.303 -31.8332V34.1883C346.303 39.8087 342.373 44.6634 336.876 45.8331L333.069 46.643C326.437 48.054 320.191 42.9968 320.191 36.2168C320.191 31.4408 323.41 27.2648 328.029 26.0494L338.818 23.2101C340.282 22.8247 341.303 21.5007 341.303 19.9864V-10.6665C341.303 -12.0757 340.008 -13.1291 338.629 -12.8423L302.721 -5.37925C301.617 -5.14965 300.825 -4.17627 300.825 -3.04799V42.727C300.825 48.8749 296.523 54.1846 290.509 55.4603L287.899 56.014C281.066 57.4634 274.633 52.2519 274.633 45.2669C274.633 40.8153 277.629 36.9213 281.932 35.7804L293.225 32.7859C294.617 32.4168 295.586 31.1572 295.586 29.7172V-21.7123C295.586 -23.9845 297.192 -25.9402 299.42 -26.3831Z" fill="url(#paint4_radial_449_96)"/>
<path fill-rule="evenodd" clip-rule="evenodd" d="M385.75 12C385.75 51.6264 353.626 83.75 314 83.75C274.374 83.75 242.25 51.6264 242.25 12C242.25 -27.6264 274.374 -59.75 314 -59.75C353.626 -59.75 385.75 -27.6264 385.75 12ZM379.4 12.0794C379.4 48.2429 350.12 77.5592 314 77.5592C277.88 77.5592 248.6 48.2429 248.6 12.0794C248.6 -24.0841 277.88 -53.4004 314 -53.4004C350.12 -53.4004 379.4 -24.0841 379.4 12.0794Z" fill="url(#paint5_radial_449_96)"/>
<path d="M20.3402 79.1392C19.7171 79.1392 19.157 79.0199 18.6598 78.7812C18.166 78.5393 17.7715 78.2079 17.4766 77.7869C17.1816 77.366 17.0241 76.8854 17.0043 76.3452H18.4957C18.5322 76.7827 18.7261 77.1423 19.0774 77.424C19.4287 77.7057 19.8497 77.8466 20.3402 77.8466C20.7313 77.8466 21.0777 77.7571 21.3793 77.5781C21.6842 77.3958 21.9228 77.1456 22.0952 76.8274C22.2708 76.5092 22.3587 76.1463 22.3587 75.7386C22.3587 75.3243 22.2692 74.9548 22.0902 74.63C21.9112 74.3052 21.6643 74.05 21.3494 73.8643C21.0379 73.6787 20.6799 73.5843 20.2756 73.581C19.9673 73.581 19.6574 73.634 19.3459 73.7401C19.0343 73.8461 18.7824 73.9853 18.5902 74.1577L17.1832 73.9489L17.755 68.8182H23.353V70.1357H19.0327L18.7095 72.9844H18.7692C18.968 72.7921 19.2315 72.6314 19.5597 72.5021C19.8911 72.3729 20.2457 72.3082 20.6236 72.3082C21.2434 72.3082 21.7952 72.4557 22.2791 72.7507C22.7663 73.0457 23.1491 73.4484 23.4276 73.9588C23.7093 74.4659 23.8485 75.0492 23.8452 75.7088C23.8485 76.3684 23.6993 76.9567 23.3977 77.4737C23.0994 77.9908 22.6851 78.3984 22.1548 78.6967C21.6278 78.9917 21.023 79.1392 20.3402 79.1392ZM29.1218 79.169C28.3363 79.1657 27.6651 78.9586 27.1083 78.5476C26.5515 78.1366 26.1256 77.5384 25.8306 76.7528C25.5356 75.9673 25.3881 75.0211 25.3881 73.9141C25.3881 72.8104 25.5356 71.8674 25.8306 71.0852C26.1289 70.303 26.5564 69.7064 27.1133 69.2955C27.6734 68.8845 28.3429 68.679 29.1218 68.679C29.9007 68.679 30.5685 68.8861 31.1253 69.3004C31.6822 69.7114 32.1081 70.308 32.403 71.0902C32.7013 71.8691 32.8505 72.8104 32.8505 73.9141C32.8505 75.0244 32.703 75.9723 32.408 76.7578C32.113 77.54 31.6871 78.1383 31.1303 78.5526C30.5735 78.9635 29.904 79.169 29.1218 79.169ZM29.1218 77.8416C29.8112 77.8416 30.3498 77.5052 30.7376 76.8324C31.1287 76.1596 31.3242 75.1868 31.3242 73.9141C31.3242 73.0689 31.2347 72.3546 31.0557 71.7713C30.8801 71.1847 30.6265 70.7405 30.2951 70.4389C29.967 70.134 29.5759 69.9815 29.1218 69.9815C28.4357 69.9815 27.8971 70.3196 27.506 70.9957C27.1149 71.6719 26.9177 72.6446 26.9144 73.9141C26.9144 74.7625 27.0022 75.4801 27.1779 76.0668C27.3569 76.6501 27.6104 77.0926 27.9386 77.3942C28.2667 77.6925 28.6611 77.8416 29.1218 77.8416ZM39.8448 77.0909V76.554C39.8448 76.1695 39.9243 75.8182 40.0834 75.5C40.2458 75.1785 40.4811 74.9216 40.7894 74.7294C41.1009 74.5339 41.4771 74.4361 41.9179 74.4361C42.3687 74.4361 42.7465 74.5322 43.0515 74.7244C43.3564 74.9167 43.5867 75.1735 43.7425 75.495C43.9016 75.8165 43.9811 76.1695 43.9811 76.554V77.0909C43.9811 77.4754 43.9016 77.8284 43.7425 78.1499C43.5834 78.468 43.3498 78.7249 43.0415 78.9205C42.7366 79.1127 42.3621 79.2088 41.9179 79.2088C41.4705 79.2088 41.0927 79.1127 40.7844 78.9205C40.4762 78.7249 40.2425 78.468 40.0834 78.1499C39.9243 77.8284 39.8448 77.4754 39.8448 77.0909ZM41.0032 76.554V77.0909C41.0032 77.3759 41.0711 77.6345 41.207 77.8665C41.3429 78.0985 41.5799 78.2145 41.9179 78.2145C42.2527 78.2145 42.4864 78.0985 42.6189 77.8665C42.7515 77.6345 42.8178 77.3759 42.8178 77.0909V76.554C42.8178 76.2689 42.7532 76.0104 42.6239 75.7784C42.498 75.5464 42.2626 75.4304 41.9179 75.4304C41.5865 75.4304 41.3512 75.5464 41.212 75.7784C41.0728 76.0104 41.0032 76.2689 41.0032 76.554ZM34.724 71.2642V70.7273C34.724 70.3428 34.8036 69.9898 34.9627 69.6683C35.1251 69.3468 35.3604 69.09 35.6686 68.8977C35.9802 68.7055 36.3564 68.6094 36.7972 68.6094C37.248 68.6094 37.6258 68.7055 37.9307 68.8977C38.2356 69.09 38.466 69.3468 38.6218 69.6683C38.7775 69.9898 38.8554 70.3428 38.8554 70.7273V71.2642C38.8554 71.6487 38.7759 72.0017 38.6168 72.3232C38.461 72.6413 38.229 72.8982 37.9208 73.0938C37.6159 73.286 37.2413 73.3821 36.7972 73.3821C36.3464 73.3821 35.9669 73.286 35.6587 73.0938C35.3538 72.8982 35.1218 72.6413 34.9627 72.3232C34.8036 72.0017 34.724 71.6487 34.724 71.2642ZM35.8874 70.7273V71.2642C35.8874 71.5492 35.9537 71.8078 36.0863 72.0398C36.2222 72.2718 36.4591 72.3878 36.7972 72.3878C37.1286 72.3878 37.3606 72.2718 37.4932 72.0398C37.6291 71.8078 37.6971 71.5492 37.6971 71.2642V70.7273C37.6971 70.4422 37.6324 70.1837 37.5032 69.9517C37.3739 69.7197 37.1386 69.6037 36.7972 69.6037C36.4658 69.6037 36.2304 69.7197 36.0912 69.9517C35.9553 70.1837 35.8874 70.4422 35.8874 70.7273ZM35.1963 79L42.1963 68.8182H43.3846L36.3846 79H35.1963ZM52.5395 79.1491C51.9231 79.1491 51.3729 78.9917 50.889 78.6768C50.4084 78.3587 50.0305 77.9062 49.7554 77.3196C49.4837 76.7296 49.3478 76.022 49.3478 75.1967C49.3478 74.3714 49.4853 73.6655 49.7604 73.0788C50.0388 72.4922 50.42 72.0431 50.9039 71.7315C51.3878 71.42 51.9363 71.2642 52.5495 71.2642C53.0234 71.2642 53.4046 71.3438 53.6929 71.5028C53.9846 71.6586 54.21 71.8409 54.3691 72.0497C54.5315 72.2585 54.6574 72.4425 54.7469 72.6016H54.8364V68.8182H56.3229V79H54.8712V77.8118H54.7469C54.6574 77.9742 54.5282 78.1598 54.3591 78.3686C54.1934 78.5774 53.9647 78.7597 53.6731 78.9155C53.3814 79.0713 53.0035 79.1491 52.5395 79.1491ZM52.8677 77.8814C53.2952 77.8814 53.6565 77.7687 53.9515 77.5433C54.2498 77.3146 54.4751 76.9981 54.6276 76.5938C54.7834 76.1894 54.8613 75.7187 54.8613 75.1818C54.8613 74.6515 54.785 74.1875 54.6326 73.7898C54.4801 73.392 54.2564 73.0821 53.9614 72.8601C53.6664 72.638 53.3018 72.527 52.8677 72.527C52.4202 72.527 52.0473 72.643 51.7491 72.875C51.4508 73.107 51.2254 73.4235 51.0729 73.8246C50.9238 74.2256 50.8492 74.678 50.8492 75.1818C50.8492 75.6922 50.9254 76.1513 51.0779 76.5589C51.2303 76.9666 51.4557 77.2898 51.754 77.5284C52.0556 77.7637 52.4268 77.8814 52.8677 77.8814ZM58.3605 79V71.3636H59.847V79H58.3605ZM59.1113 70.1854C58.8527 70.1854 58.6307 70.0992 58.4451 69.9268C58.2628 69.7512 58.1716 69.5424 58.1716 69.3004C58.1716 69.0552 58.2628 68.8464 58.4451 68.674C58.6307 68.4983 58.8527 68.4105 59.1113 68.4105C59.3698 68.4105 59.5902 68.4983 59.7725 68.674C59.9581 68.8464 60.0509 69.0552 60.0509 69.3004C60.0509 69.5424 59.9581 69.7512 59.7725 69.9268C59.5902 70.0992 59.3698 70.1854 59.1113 70.1854ZM67.4852 73.228L66.1379 73.4666C66.0815 73.2943 65.992 73.1302 65.8694 72.9744C65.7501 72.8187 65.5877 72.6911 65.3822 72.5916C65.1767 72.4922 64.9198 72.4425 64.6116 72.4425C64.1907 72.4425 63.8393 72.5369 63.5576 72.7259C63.2759 72.9115 63.135 73.1518 63.135 73.4467C63.135 73.7019 63.2295 73.9074 63.4184 74.0632C63.6073 74.219 63.9123 74.3466 64.3332 74.446L65.5462 74.7244C66.2489 74.8868 66.7726 75.1371 67.1173 75.4751C67.462 75.8132 67.6343 76.2524 67.6343 76.7926C67.6343 77.25 67.5017 77.6577 67.2366 78.0156C66.9748 78.3703 66.6085 78.6487 66.1379 78.8509C65.6705 79.053 65.1286 79.1541 64.5122 79.1541C63.657 79.1541 62.9594 78.9718 62.4191 78.6072C61.8789 78.2393 61.5474 77.7173 61.4248 77.0412L62.8616 76.8224C62.9511 77.197 63.135 77.4804 63.4134 77.6726C63.6918 77.8615 64.0548 77.956 64.5022 77.956C64.9894 77.956 65.3789 77.8549 65.6705 77.6527C65.9622 77.4472 66.108 77.197 66.108 76.902C66.108 76.6634 66.0185 76.4628 65.8396 76.3004C65.6639 76.138 65.3938 76.0154 65.0292 75.9325L63.7366 75.6491C63.024 75.4867 62.497 75.2282 62.1556 74.8736C61.8176 74.5189 61.6485 74.0698 61.6485 73.5263C61.6485 73.0755 61.7745 72.6811 62.0264 72.343C62.2783 72.005 62.6263 71.7415 63.0704 71.5526C63.5145 71.3603 64.0233 71.2642 64.5967 71.2642C65.422 71.2642 66.0716 71.4432 66.5455 71.8011C67.0195 72.1558 67.3327 72.6314 67.4852 73.228ZM72.4013 79.1541C71.6622 79.1541 71.0259 78.9867 70.4923 78.652C69.962 78.3139 69.5543 77.8482 69.2692 77.255C68.9842 76.6617 68.8417 75.9822 68.8417 75.2166C68.8417 74.4411 68.9875 73.7566 69.2792 73.1634C69.5709 72.5668 69.9818 72.1011 70.5121 71.7663C71.0424 71.4316 71.6672 71.2642 72.3864 71.2642C72.9664 71.2642 73.4835 71.3719 73.9376 71.5874C74.3916 71.7995 74.7579 72.0978 75.0363 72.4822C75.318 72.8667 75.4854 73.3158 75.5384 73.8295H74.0917C74.0121 73.4716 73.8298 73.1634 73.5448 72.9048C73.2631 72.6463 72.8852 72.517 72.4113 72.517C71.997 72.517 71.6341 72.6264 71.3225 72.8452C71.0143 73.0606 70.774 73.3688 70.6016 73.7699C70.4293 74.1676 70.3431 74.6383 70.3431 75.1818C70.3431 75.7386 70.4276 76.2192 70.5967 76.6236C70.7657 77.0279 71.0043 77.3411 71.3126 77.5632C71.6241 77.7853 71.9904 77.8963 72.4113 77.8963C72.693 77.8963 72.9482 77.8449 73.1769 77.7422C73.4089 77.6361 73.6028 77.4853 73.7586 77.2898C73.9177 77.0942 74.0287 76.8589 74.0917 76.5838H75.5384C75.4854 77.0777 75.3246 77.5185 75.0562 77.9062C74.7877 78.294 74.4281 78.599 73.9773 78.821C73.5299 79.0431 73.0046 79.1541 72.4013 79.1541ZM80.2607 79.1541C79.5448 79.1541 78.92 78.9901 78.3864 78.6619C77.8528 78.3338 77.4385 77.8748 77.1435 77.2848C76.8485 76.6948 76.701 76.0054 76.701 75.2166C76.701 74.4245 76.8485 73.7318 77.1435 73.1385C77.4385 72.5452 77.8528 72.0845 78.3864 71.7564C78.92 71.4283 79.5448 71.2642 80.2607 71.2642C80.9766 71.2642 81.6014 71.4283 82.135 71.7564C82.6686 72.0845 83.0829 72.5452 83.3779 73.1385C83.6729 73.7318 83.8204 74.4245 83.8204 75.2166C83.8204 76.0054 83.6729 76.6948 83.3779 77.2848C83.0829 77.8748 82.6686 78.3338 82.135 78.6619C81.6014 78.9901 80.9766 79.1541 80.2607 79.1541ZM80.2657 77.9062C80.7297 77.9062 81.1142 77.7836 81.4191 77.5384C81.724 77.2931 81.9494 76.9666 82.0952 76.5589C82.2444 76.1513 82.3189 75.7022 82.3189 75.2116C82.3189 74.7244 82.2444 74.277 82.0952 73.8693C81.9494 73.4583 81.724 73.1286 81.4191 72.88C81.1142 72.6314 80.7297 72.5071 80.2657 72.5071C79.7983 72.5071 79.4106 72.6314 79.1023 72.88C78.7974 73.1286 78.5704 73.4583 78.4212 73.8693C78.2754 74.277 78.2025 74.7244 78.2025 75.2116C78.2025 75.7022 78.2754 76.1513 78.4212 76.5589C78.5704 76.9666 78.7974 77.2931 79.1023 77.5384C79.4106 77.7836 79.7983 77.9062 80.2657 77.9062ZM90.233 75.8331V71.3636H91.7245V79H90.2628V77.6776H90.1833C90.0076 78.0852 89.7259 78.425 89.3381 78.6967C88.9536 78.9652 88.4747 79.0994 87.9013 79.0994C87.4108 79.0994 86.9766 78.9917 86.5988 78.7763C86.2242 78.5575 85.9293 78.2344 85.7138 77.8068C85.5017 77.3793 85.3956 76.8506 85.3956 76.2209V71.3636H86.8821V76.0419C86.8821 76.5623 87.0263 76.9766 87.3147 77.2848C87.603 77.593 87.9775 77.7472 88.4383 77.7472C88.7167 77.7472 88.9934 77.6776 89.2685 77.5384C89.5469 77.3991 89.7773 77.1887 89.9596 76.907C90.1452 76.6252 90.2363 76.2673 90.233 75.8331ZM95.1243 74.4659V79H93.6378V71.3636H95.0647V72.6065H95.1591C95.3348 72.2022 95.6099 71.8774 95.9844 71.6321C96.3622 71.3868 96.8379 71.2642 97.4112 71.2642C97.9316 71.2642 98.3873 71.3736 98.7784 71.5923C99.1695 71.8078 99.4728 72.1293 99.6882 72.5568C99.9037 72.9844 100.011 73.513 100.011 74.1428V79H98.5249V74.3217C98.5249 73.7682 98.3807 73.3357 98.0924 73.0241C97.804 72.7093 97.4079 72.5518 96.9041 72.5518C96.5594 72.5518 96.2529 72.6264 95.9844 72.7756C95.7192 72.9247 95.5088 73.1435 95.353 73.4318C95.2005 73.7169 95.1243 74.0616 95.1243 74.4659ZM105.486 71.3636V72.5568H101.314V71.3636H105.486ZM102.433 69.5341H103.92V76.7578C103.92 77.0462 103.963 77.2633 104.049 77.4091C104.135 77.5516 104.246 77.6494 104.382 77.7024C104.521 77.7521 104.672 77.777 104.834 77.777C104.954 77.777 105.058 77.7687 105.148 77.7521C105.237 77.7356 105.307 77.7223 105.356 77.7124L105.625 78.9403C105.539 78.9735 105.416 79.0066 105.257 79.0398C105.098 79.0762 104.899 79.0961 104.66 79.0994C104.269 79.1061 103.905 79.0365 103.567 78.8906C103.229 78.7448 102.955 78.5194 102.746 78.2145C102.537 77.9096 102.433 77.5268 102.433 77.0661V69.5341ZM113.884 79.1541C113.168 79.1541 112.543 78.9901 112.009 78.6619C111.476 78.3338 111.061 77.8748 110.766 77.2848C110.472 76.6948 110.324 76.0054 110.324 75.2166C110.324 74.4245 110.472 73.7318 110.766 73.1385C111.061 72.5452 111.476 72.0845 112.009 71.7564C112.543 71.4283 113.168 71.2642 113.884 71.2642C114.6 71.2642 115.224 71.4283 115.758 71.7564C116.292 72.0845 116.706 72.5452 117.001 73.1385C117.296 73.7318 117.443 74.4245 117.443 75.2166C117.443 76.0054 117.296 76.6948 117.001 77.2848C116.706 77.8748 116.292 78.3338 115.758 78.6619C115.224 78.9901 114.6 79.1541 113.884 79.1541ZM113.889 77.9062C114.353 77.9062 114.737 77.7836 115.042 77.5384C115.347 77.2931 115.572 76.9666 115.718 76.5589C115.867 76.1513 115.942 75.7022 115.942 75.2116C115.942 74.7244 115.867 74.277 115.718 73.8693C115.572 73.4583 115.347 73.1286 115.042 72.88C114.737 72.6314 114.353 72.5071 113.889 72.5071C113.421 72.5071 113.034 72.6314 112.725 72.88C112.42 73.1286 112.193 73.4583 112.044 73.8693C111.898 74.277 111.825 74.7244 111.825 75.2116C111.825 75.7022 111.898 76.1513 112.044 76.5589C112.193 76.9666 112.42 77.2931 112.725 77.5384C113.034 77.7836 113.421 77.9062 113.889 77.9062ZM120.505 74.4659V79H119.019V71.3636H120.445V72.6065H120.54C120.716 72.2022 120.991 71.8774 121.365 71.6321C121.743 71.3868 122.219 71.2642 122.792 71.2642C123.312 71.2642 123.768 71.3736 124.159 71.5923C124.55 71.8078 124.854 72.1293 125.069 72.5568C125.284 72.9844 125.392 73.513 125.392 74.1428V79H123.906V74.3217C123.906 73.7682 123.761 73.3357 123.473 73.0241C123.185 72.7093 122.789 72.5518 122.285 72.5518C121.94 72.5518 121.634 72.6264 121.365 72.7756C121.1 72.9247 120.89 73.1435 120.734 73.4318C120.581 73.7169 120.505 74.0616 120.505 74.4659ZM131.902 79H130.272L133.936 68.8182H135.711L139.375 79H137.744L134.865 70.6676H134.786L131.902 79ZM132.176 75.0128H137.465V76.3054H132.176V75.0128ZM140.642 81.8636V71.3636H142.093V72.6016H142.218C142.304 72.4425 142.428 72.2585 142.59 72.0497C142.753 71.8409 142.978 71.6586 143.267 71.5028C143.555 71.3438 143.936 71.2642 144.41 71.2642C145.027 71.2642 145.577 71.42 146.061 71.7315C146.545 72.0431 146.924 72.4922 147.199 73.0788C147.478 73.6655 147.617 74.3714 147.617 75.1967C147.617 76.022 147.479 76.7296 147.204 77.3196C146.929 77.9062 146.551 78.3587 146.071 78.6768C145.59 78.9917 145.041 79.1491 144.425 79.1491C143.961 79.1491 143.581 79.0713 143.286 78.9155C142.995 78.7597 142.766 78.5774 142.6 78.3686C142.435 78.1598 142.307 77.9742 142.218 77.8118H142.128V81.8636H140.642ZM142.098 75.1818C142.098 75.7187 142.176 76.1894 142.332 76.5938C142.488 76.9981 142.713 77.3146 143.008 77.5433C143.303 77.7687 143.664 77.8814 144.092 77.8814C144.536 77.8814 144.907 77.7637 145.206 77.5284C145.504 77.2898 145.729 76.9666 145.882 76.5589C146.037 76.1513 146.115 75.6922 146.115 75.1818C146.115 74.678 146.039 74.2256 145.887 73.8246C145.737 73.4235 145.512 73.107 145.21 72.875C144.912 72.643 144.539 72.527 144.092 72.527C143.661 72.527 143.296 72.638 142.998 72.8601C142.703 73.0821 142.479 73.392 142.327 73.7898C142.175 74.1875 142.098 74.6515 142.098 75.1818ZM149.198 81.8636V71.3636H150.65V72.6016H150.774C150.86 72.4425 150.985 72.2585 151.147 72.0497C151.31 71.8409 151.535 71.6586 151.823 71.5028C152.112 71.3438 152.493 71.2642 152.967 71.2642C153.583 71.2642 154.133 71.42 154.617 71.7315C155.101 72.0431 155.481 72.4922 155.756 73.0788C156.034 73.6655 156.173 74.3714 156.173 75.1967C156.173 76.022 156.036 76.7296 155.761 77.3196C155.486 77.9062 155.108 78.3587 154.627 78.6768C154.147 78.9917 153.598 79.1491 152.982 79.1491C152.518 79.1491 152.138 79.0713 151.843 78.9155C151.551 78.7597 151.323 78.5774 151.157 78.3686C150.991 78.1598 150.864 77.9742 150.774 77.8118H150.685V81.8636H149.198ZM150.655 75.1818C150.655 75.7187 150.733 76.1894 150.889 76.5938C151.044 76.9981 151.27 77.3146 151.565 77.5433C151.86 77.7687 152.221 77.8814 152.649 77.8814C153.093 77.8814 153.464 77.7637 153.762 77.5284C154.06 77.2898 154.286 76.9666 154.438 76.5589C154.594 76.1513 154.672 75.6922 154.672 75.1818C154.672 74.678 154.596 74.2256 154.443 73.8246C154.294 73.4235 154.069 73.107 153.767 72.875C153.469 72.643 153.096 72.527 152.649 72.527C152.218 72.527 151.853 72.638 151.555 72.8601C151.26 73.0821 151.036 73.392 150.884 73.7898C150.731 74.1875 150.655 74.6515 150.655 75.1818ZM159.241 68.8182V79H157.755V68.8182H159.241ZM164.448 79.1541C163.696 79.1541 163.048 78.9934 162.504 78.6719C161.964 78.3471 161.547 77.8913 161.252 77.3047C160.96 76.7147 160.814 76.0237 160.814 75.2315C160.814 74.4493 160.96 73.7599 161.252 73.1634C161.547 72.5668 161.958 72.1011 162.485 71.7663C163.015 71.4316 163.635 71.2642 164.344 71.2642C164.775 71.2642 165.192 71.3355 165.597 71.478C166.001 71.6205 166.364 71.8442 166.686 72.1491C167.007 72.4541 167.261 72.8501 167.446 73.3374C167.632 73.8213 167.725 74.4096 167.725 75.1023V75.6293H161.654V74.5156H166.268C166.268 74.1245 166.188 73.7782 166.029 73.4766C165.87 73.1716 165.647 72.9313 165.358 72.7557C165.073 72.58 164.738 72.4922 164.354 72.4922C163.936 72.4922 163.572 72.5949 163.26 72.8004C162.952 73.0026 162.713 73.2678 162.544 73.5959C162.379 73.9207 162.296 74.2737 162.296 74.6548V75.5249C162.296 76.0353 162.385 76.4695 162.564 76.8274C162.746 77.1854 163 77.4588 163.325 77.6477C163.65 77.8333 164.029 77.9261 164.463 77.9261C164.745 77.9261 165.002 77.8864 165.234 77.8068C165.466 77.724 165.666 77.6013 165.835 77.4389C166.004 77.2765 166.134 77.076 166.223 76.8374L167.63 77.0909C167.518 77.5052 167.315 77.8681 167.024 78.1797C166.735 78.4879 166.372 78.7282 165.935 78.9006C165.501 79.0696 165.005 79.1541 164.448 79.1541ZM173.03 68.8182H174.895L178.136 76.733H178.256L181.497 68.8182H183.361V79H181.9V71.6321H181.805L178.802 78.9851H177.589L174.586 71.6271H174.492V79H173.03V68.8182ZM190.229 75.8331V71.3636H191.72V79H190.259V77.6776H190.179C190.003 78.0852 189.722 78.425 189.334 78.6967C188.95 78.9652 188.471 79.0994 187.897 79.0994C187.407 79.0994 186.972 78.9917 186.595 78.7763C186.22 78.5575 185.925 78.2344 185.71 77.8068C185.498 77.3793 185.392 76.8506 185.392 76.2209V71.3636H186.878V76.0419C186.878 76.5623 187.022 76.9766 187.311 77.2848C187.599 77.593 187.973 77.7472 188.434 77.7472C188.713 77.7472 188.989 77.6776 189.264 77.5384C189.543 77.3991 189.773 77.1887 189.955 76.907C190.141 76.6252 190.232 76.2673 190.229 75.8331ZM199.356 73.228L198.009 73.4666C197.952 73.2943 197.863 73.1302 197.74 72.9744C197.621 72.8187 197.458 72.6911 197.253 72.5916C197.047 72.4922 196.791 72.4425 196.482 72.4425C196.061 72.4425 195.71 72.5369 195.428 72.7259C195.147 72.9115 195.006 73.1518 195.006 73.4467C195.006 73.7019 195.1 73.9074 195.289 74.0632C195.478 74.219 195.783 74.3466 196.204 74.446L197.417 74.7244C198.12 74.8868 198.643 75.1371 198.988 75.4751C199.333 75.8132 199.505 76.2524 199.505 76.7926C199.505 77.25 199.373 77.6577 199.107 78.0156C198.846 78.3703 198.479 78.6487 198.009 78.8509C197.541 79.053 196.999 79.1541 196.383 79.1541C195.528 79.1541 194.83 78.9718 194.29 78.6072C193.75 78.2393 193.418 77.7173 193.296 77.0412L194.732 76.8224C194.822 77.197 195.006 77.4804 195.284 77.6726C195.563 77.8615 195.926 77.956 196.373 77.956C196.86 77.956 197.25 77.8549 197.541 77.6527C197.833 77.4472 197.979 77.197 197.979 76.902C197.979 76.6634 197.889 76.4628 197.71 76.3004C197.535 76.138 197.265 76.0154 196.9 75.9325L195.607 75.6491C194.895 75.4867 194.368 75.2282 194.026 74.8736C193.688 74.5189 193.519 74.0698 193.519 73.5263C193.519 73.0755 193.645 72.6811 193.897 72.343C194.149 72.005 194.497 71.7415 194.941 71.5526C195.385 71.3603 195.894 71.2642 196.467 71.2642C197.293 71.2642 197.942 71.4432 198.416 71.8011C198.89 72.1558 199.204 72.6314 199.356 73.228ZM201.056 79V71.3636H202.542V79H201.056ZM201.806 70.1854C201.548 70.1854 201.326 70.0992 201.14 69.9268C200.958 69.7512 200.867 69.5424 200.867 69.3004C200.867 69.0552 200.958 68.8464 201.14 68.674C201.326 68.4983 201.548 68.4105 201.806 68.4105C202.065 68.4105 202.285 68.4983 202.467 68.674C202.653 68.8464 202.746 69.0552 202.746 69.3004C202.746 69.5424 202.653 69.7512 202.467 69.9268C202.285 70.0992 202.065 70.1854 201.806 70.1854ZM207.674 79.1541C206.935 79.1541 206.299 78.9867 205.765 78.652C205.235 78.3139 204.827 77.8482 204.542 77.255C204.257 76.6617 204.115 75.9822 204.115 75.2166C204.115 74.4411 204.261 73.7566 204.552 73.1634C204.844 72.5668 205.255 72.1011 205.785 71.7663C206.316 71.4316 206.94 71.2642 207.66 71.2642C208.24 71.2642 208.757 71.3719 209.211 71.5874C209.665 71.7995 210.031 72.0978 210.309 72.4822C210.591 72.8667 210.759 73.3158 210.812 73.8295H209.365C209.285 73.4716 209.103 73.1634 208.818 72.9048C208.536 72.6463 208.158 72.517 207.684 72.517C207.27 72.517 206.907 72.6264 206.596 72.8452C206.287 73.0606 206.047 73.3688 205.875 73.7699C205.702 74.1676 205.616 74.6383 205.616 75.1818C205.616 75.7386 205.701 76.2192 205.87 76.6236C206.039 77.0279 206.277 77.3411 206.586 77.5632C206.897 77.7853 207.263 77.8963 207.684 77.8963C207.966 77.8963 208.221 77.8449 208.45 77.7422C208.682 77.6361 208.876 77.4853 209.032 77.2898C209.191 77.0942 209.302 76.8589 209.365 76.5838H210.812C210.759 77.0777 210.598 77.5185 210.329 77.9062C210.061 78.294 209.701 78.599 209.25 78.821C208.803 79.0431 208.278 79.1541 207.674 79.1541Z" fill="#0E121B"/>
<path d="M17.0568 100V91.2727H22.2898V92.2102H18.1136V95.1591H21.8977V96.0966H18.1136V100H17.0568ZM26.142 100.136C25.5511 100.136 25.0327 99.9957 24.5866 99.7145C24.1435 99.4332 23.7969 99.0398 23.5469 98.5341C23.2997 98.0284 23.1761 97.4375 23.1761 96.7614C23.1761 96.0795 23.2997 95.4844 23.5469 94.9759C23.7969 94.4673 24.1435 94.0724 24.5866 93.7912C25.0327 93.5099 25.5511 93.3693 26.142 93.3693C26.733 93.3693 27.25 93.5099 27.6932 93.7912C28.1392 94.0724 28.4858 94.4673 28.733 94.9759C28.983 95.4844 29.108 96.0795 29.108 96.7614C29.108 97.4375 28.983 98.0284 28.733 98.5341C28.4858 99.0398 28.1392 99.4332 27.6932 99.7145C27.25 99.9957 26.733 100.136 26.142 100.136ZM26.142 99.233C26.5909 99.233 26.9602 99.1179 27.25 98.8878C27.5398 98.6577 27.7543 98.3551 27.8935 97.9801C28.0327 97.6051 28.1023 97.1989 28.1023 96.7614C28.1023 96.3239 28.0327 95.9162 27.8935 95.5384C27.7543 95.1605 27.5398 94.8551 27.25 94.6222C26.9602 94.3892 26.5909 94.2727 26.142 94.2727C25.6932 94.2727 25.3239 94.3892 25.0341 94.6222C24.7443 94.8551 24.5298 95.1605 24.3906 95.5384C24.2514 95.9162 24.1818 96.3239 24.1818 96.7614C24.1818 97.1989 24.2514 97.6051 24.3906 97.9801C24.5298 98.3551 24.7443 98.6577 25.0341 98.8878C25.3239 99.1179 25.6932 99.233 26.142 99.233ZM30.6431 100V93.4545H31.6147V94.4432H31.6829C31.8022 94.1193 32.0181 93.8565 32.3306 93.6548C32.6431 93.4531 32.9954 93.3523 33.3874 93.3523C33.4613 93.3523 33.5536 93.3537 33.6644 93.3565C33.7752 93.3594 33.859 93.3636 33.9158 93.3693V94.392C33.8817 94.3835 33.8036 94.3707 33.6815 94.3537C33.5621 94.3338 33.4357 94.3239 33.3022 94.3239C32.984 94.3239 32.6999 94.3906 32.4499 94.5241C32.2028 94.6548 32.0067 94.8366 31.8619 95.0696C31.7198 95.2997 31.6488 95.5625 31.6488 95.858V100H30.6431ZM41.142 100.136C40.5511 100.136 40.0327 99.9957 39.5866 99.7145C39.1435 99.4332 38.7969 99.0398 38.5469 98.5341C38.2997 98.0284 38.1761 97.4375 38.1761 96.7614C38.1761 96.0795 38.2997 95.4844 38.5469 94.9759C38.7969 94.4673 39.1435 94.0724 39.5866 93.7912C40.0327 93.5099 40.5511 93.3693 41.142 93.3693C41.733 93.3693 42.25 93.5099 42.6932 93.7912C43.1392 94.0724 43.4858 94.4673 43.733 94.9759C43.983 95.4844 44.108 96.0795 44.108 96.7614C44.108 97.4375 43.983 98.0284 43.733 98.5341C43.4858 99.0398 43.1392 99.4332 42.6932 99.7145C42.25 99.9957 41.733 100.136 41.142 100.136ZM41.142 99.233C41.5909 99.233 41.9602 99.1179 42.25 98.8878C42.5398 98.6577 42.7543 98.3551 42.8935 97.9801C43.0327 97.6051 43.1023 97.1989 43.1023 96.7614C43.1023 96.3239 43.0327 95.9162 42.8935 95.5384C42.7543 95.1605 42.5398 94.8551 42.25 94.6222C41.9602 94.3892 41.5909 94.2727 41.142 94.2727C40.6932 94.2727 40.3239 94.3892 40.0341 94.6222C39.7443 94.8551 39.5298 95.1605 39.3906 95.5384C39.2514 95.9162 39.1818 96.3239 39.1818 96.7614C39.1818 97.1989 39.2514 97.6051 39.3906 97.9801C39.5298 98.3551 39.7443 98.6577 40.0341 98.8878C40.3239 99.1179 40.6932 99.233 41.142 99.233ZM46.6488 96.0625V100H45.6431V93.4545H46.6147V94.4773H46.6999C46.8533 94.1449 47.0863 93.8778 47.3988 93.6761C47.7113 93.4716 48.1147 93.3693 48.609 93.3693C49.0522 93.3693 49.44 93.4602 49.7724 93.642C50.1048 93.821 50.3633 94.0938 50.5479 94.4602C50.7326 94.8239 50.8249 95.2841 50.8249 95.8409V100H49.8192V95.9091C49.8192 95.3949 49.6857 94.9943 49.4187 94.7074C49.1516 94.4176 48.7852 94.2727 48.3192 94.2727C47.9982 94.2727 47.7113 94.3423 47.4585 94.4815C47.2085 94.6207 47.011 94.8239 46.8661 95.0909C46.7212 95.358 46.6488 95.6818 46.6488 96.0625ZM53.6683 91.2727V100H52.6626V91.2727H53.6683ZM56.158 102.455C55.9876 102.455 55.8356 102.44 55.7021 102.412C55.5685 102.386 55.4762 102.361 55.4251 102.335L55.6808 101.449C55.9251 101.511 56.141 101.534 56.3285 101.517C56.516 101.5 56.6822 101.416 56.8271 101.266C56.9748 101.118 57.1097 100.878 57.2319 100.545L57.4194 100.034L54.9989 93.4545H56.0898L57.8967 98.6705H57.9648L59.7717 93.4545H60.8626L58.0842 100.955C57.9592 101.293 57.8043 101.572 57.6197 101.794C57.435 102.018 57.2205 102.185 56.9762 102.293C56.7347 102.401 56.462 102.455 56.158 102.455ZM68.1218 101.091V90.1818H68.8207V101.091H68.1218ZM70.4741 93.4545C70.4229 93.0227 70.2156 92.6875 69.8519 92.4489C69.4883 92.2102 69.0423 92.0909 68.5138 92.0909C68.1275 92.0909 67.7894 92.1534 67.4996 92.2784C67.2127 92.4034 66.9883 92.5753 66.8263 92.794C66.6673 93.0128 66.5877 93.2614 66.5877 93.5398C66.5877 93.7727 66.6431 93.973 66.7539 94.1406C66.8675 94.3054 67.0124 94.4432 67.1886 94.554C67.3647 94.6619 67.5494 94.7514 67.7425 94.8224C67.9357 94.8906 68.1133 94.946 68.2752 94.9886L69.1616 95.2273C69.3888 95.2869 69.6417 95.3693 69.9201 95.4744C70.2013 95.5795 70.4698 95.723 70.7255 95.9048C70.984 96.0838 71.1971 96.3139 71.3647 96.5952C71.5323 96.8764 71.6161 97.2216 71.6161 97.6307C71.6161 98.1023 71.4925 98.5284 71.2454 98.9091C71.0011 99.2898 70.6431 99.5923 70.1715 99.8168C69.7028 100.041 69.1332 100.153 68.4627 100.153C67.8377 100.153 67.2965 100.053 66.8391 99.8509C66.3846 99.6491 66.0266 99.3679 65.7653 99.0071C65.5067 98.6463 65.3604 98.2273 65.3263 97.75H66.4173C66.4457 98.0795 66.5565 98.3523 66.7496 98.5682C66.9457 98.7812 67.1928 98.9403 67.4911 99.0455C67.7923 99.1477 68.1161 99.1989 68.4627 99.1989C68.8661 99.1989 69.2283 99.1335 69.5494 99.0028C69.8704 98.8693 70.1246 98.6847 70.3121 98.4489C70.4996 98.2102 70.5934 97.9318 70.5934 97.6136C70.5934 97.3239 70.5124 97.0881 70.3505 96.9062C70.1886 96.7244 69.9755 96.5767 69.7113 96.4631C69.4471 96.3494 69.1616 96.25 68.8548 96.1648L67.7809 95.858C67.0991 95.6619 66.5593 95.3821 66.1616 95.0185C65.7638 94.6548 65.565 94.179 65.565 93.5909C65.565 93.1023 65.6971 92.6761 65.9613 92.3125C66.2283 91.946 66.5863 91.6619 67.0352 91.4602C67.4869 91.2557 67.9911 91.1534 68.5479 91.1534C69.1104 91.1534 69.6104 91.2543 70.0479 91.456C70.4854 91.6548 70.832 91.9276 71.0877 92.2741C71.3462 92.6207 71.4826 93.0142 71.4968 93.4545H70.4741ZM72.9957 98.2102V97.3409L76.831 91.2727H77.4616V92.6193H77.0355L74.1378 97.2045V97.2727H79.3026V98.2102H72.9957ZM77.1037 100V97.946V97.5412V91.2727H78.1094V100H77.1037ZM81.2393 100.068C81.0291 100.068 80.8487 99.9929 80.6982 99.8423C80.5476 99.6918 80.4723 99.5114 80.4723 99.3011C80.4723 99.0909 80.5476 98.9105 80.6982 98.7599C80.8487 98.6094 81.0291 98.5341 81.2393 98.5341C81.4496 98.5341 81.63 98.6094 81.7805 98.7599C81.9311 98.9105 82.0064 99.0909 82.0064 99.3011C82.0064 99.4403 81.9709 99.5682 81.8999 99.6847C81.8317 99.8011 81.7393 99.8949 81.6229 99.9659C81.5092 100.034 81.3814 100.068 81.2393 100.068ZM86.4904 91.1534C86.8484 91.1562 87.2063 91.2244 87.5643 91.358C87.9222 91.4915 88.2489 91.7131 88.5444 92.0227C88.8398 92.3295 89.0771 92.7486 89.256 93.2798C89.435 93.8111 89.5245 94.4773 89.5245 95.2784C89.5245 96.054 89.4506 96.7429 89.3029 97.3452C89.158 97.9446 88.9478 98.4503 88.6722 98.8622C88.3995 99.2741 88.0671 99.5866 87.6751 99.7997C87.2859 100.013 86.8455 100.119 86.354 100.119C85.8654 100.119 85.4293 100.023 85.0458 99.8295C84.6651 99.6335 84.3526 99.3622 84.1083 99.0156C83.8668 98.6662 83.712 98.2614 83.6438 97.8011H84.6836C84.7773 98.2017 84.9634 98.5327 85.2418 98.794C85.5231 99.0526 85.8938 99.1818 86.354 99.1818C87.0273 99.1818 87.5586 98.8878 87.9478 98.2997C88.3398 97.7116 88.5359 96.8807 88.5359 95.8068H88.4677C88.3086 96.0455 88.1197 96.2514 87.9009 96.4247C87.6822 96.598 87.4393 96.7315 87.1722 96.8253C86.9052 96.919 86.6211 96.9659 86.32 96.9659C85.82 96.9659 85.3612 96.8423 84.9435 96.5952C84.5288 96.3452 84.1964 96.0028 83.9464 95.5682C83.6992 95.1307 83.5756 94.6307 83.5756 94.0682C83.5756 93.5341 83.695 93.0455 83.9336 92.6023C84.1751 92.1562 84.5131 91.8011 84.9478 91.5369C85.3853 91.2727 85.8995 91.1449 86.4904 91.1534ZM86.4904 92.0909C86.1325 92.0909 85.81 92.1804 85.5231 92.3594C85.239 92.5355 85.0131 92.7741 84.8455 93.0753C84.6808 93.3736 84.5984 93.7045 84.5984 94.0682C84.5984 94.4318 84.6779 94.7628 84.837 95.0611C84.9989 95.3565 85.2191 95.5923 85.4975 95.7685C85.7788 95.9418 86.0984 96.0284 86.4563 96.0284C86.7262 96.0284 86.9776 95.9759 87.2106 95.8707C87.4435 95.7628 87.6467 95.6165 87.82 95.4318C87.9961 95.2443 88.1339 95.0327 88.2333 94.7969C88.3327 94.5582 88.3825 94.3097 88.3825 94.0511C88.3825 93.7102 88.3001 93.3906 88.1353 93.0923C87.9734 92.794 87.7489 92.5526 87.462 92.3679C87.1779 92.1832 86.854 92.0909 86.4904 92.0909ZM93.9787 91.1534C94.3366 91.1562 94.6946 91.2244 95.0526 91.358C95.4105 91.4915 95.7372 91.7131 96.0327 92.0227C96.3281 92.3295 96.5653 92.7486 96.7443 93.2798C96.9233 93.8111 97.0128 94.4773 97.0128 95.2784C97.0128 96.054 96.9389 96.7429 96.7912 97.3452C96.6463 97.9446 96.4361 98.4503 96.1605 98.8622C95.8878 99.2741 95.5554 99.5866 95.1634 99.7997C94.7741 100.013 94.3338 100.119 93.8423 100.119C93.3537 100.119 92.9176 100.023 92.5341 99.8295C92.1534 99.6335 91.8409 99.3622 91.5966 99.0156C91.3551 98.6662 91.2003 98.2614 91.1321 97.8011H92.1719C92.2656 98.2017 92.4517 98.5327 92.7301 98.794C93.0114 99.0526 93.3821 99.1818 93.8423 99.1818C94.5156 99.1818 95.0469 98.8878 95.4361 98.2997C95.8281 97.7116 96.0241 96.8807 96.0241 95.8068H95.956C95.7969 96.0455 95.608 96.2514 95.3892 96.4247C95.1705 96.598 94.9276 96.7315 94.6605 96.8253C94.3935 96.919 94.1094 96.9659 93.8082 96.9659C93.3082 96.9659 92.8494 96.8423 92.4318 96.5952C92.017 96.3452 91.6847 96.0028 91.4347 95.5682C91.1875 95.1307 91.0639 94.6307 91.0639 94.0682C91.0639 93.5341 91.1832 93.0455 91.4219 92.6023C91.6634 92.1562 92.0014 91.8011 92.4361 91.5369C92.8736 91.2727 93.3878 91.1449 93.9787 91.1534ZM93.9787 92.0909C93.6207 92.0909 93.2983 92.1804 93.0114 92.3594C92.7273 92.5355 92.5014 92.7741 92.3338 93.0753C92.169 93.3736 92.0866 93.7045 92.0866 94.0682C92.0866 94.4318 92.1662 94.7628 92.3253 95.0611C92.4872 95.3565 92.7074 95.5923 92.9858 95.7685C93.267 95.9418 93.5866 96.0284 93.9446 96.0284C94.2145 96.0284 94.4659 95.9759 94.6989 95.8707C94.9318 95.7628 95.1349 95.6165 95.3082 95.4318C95.4844 95.2443 95.6222 95.0327 95.7216 94.7969C95.821 94.5582 95.8707 94.3097 95.8707 94.0511C95.8707 93.7102 95.7884 93.3906 95.6236 93.0923C95.4616 92.794 95.2372 92.5526 94.9503 92.3679C94.6662 92.1832 94.3423 92.0909 93.9787 92.0909ZM102.081 102.455V93.4545H103.052V94.4943H103.172C103.245 94.3807 103.348 94.2358 103.478 94.0597C103.612 93.8807 103.802 93.7216 104.049 93.5824C104.299 93.4403 104.637 93.3693 105.064 93.3693C105.615 93.3693 106.1 93.5071 106.521 93.7827C106.941 94.0582 107.27 94.4489 107.505 94.9545C107.741 95.4602 107.859 96.0568 107.859 96.7443C107.859 97.4375 107.741 98.0384 107.505 98.5469C107.27 99.0526 106.943 99.4446 106.525 99.723C106.108 99.9986 105.626 100.136 105.081 100.136C104.66 100.136 104.324 100.067 104.071 99.9276C103.818 99.7855 103.623 99.625 103.487 99.446C103.35 99.2642 103.245 99.1136 103.172 98.9943H103.086V102.455H102.081ZM103.069 96.7273C103.069 97.2216 103.142 97.6577 103.287 98.0355C103.431 98.4105 103.643 98.7045 103.922 98.9176C104.2 99.1278 104.541 99.233 104.944 99.233C105.365 99.233 105.716 99.1222 105.997 98.9006C106.281 98.6761 106.494 98.375 106.636 97.9972C106.781 97.6165 106.853 97.1932 106.853 96.7273C106.853 96.267 106.782 95.8523 106.64 95.483C106.501 95.1108 106.289 94.8168 106.005 94.6009C105.724 94.3821 105.37 94.2727 104.944 94.2727C104.535 94.2727 104.191 94.3764 103.913 94.5838C103.635 94.7884 103.424 95.0753 103.282 95.4446C103.14 95.8111 103.069 96.2386 103.069 96.7273ZM112.137 100.136C111.507 100.136 110.963 99.9972 110.505 99.7188C110.051 99.4375 109.7 99.0455 109.453 98.5426C109.208 98.0369 109.086 97.4489 109.086 96.7784C109.086 96.108 109.208 95.517 109.453 95.0057C109.7 94.4915 110.044 94.0909 110.484 93.804C110.927 93.5142 111.444 93.3693 112.035 93.3693C112.376 93.3693 112.713 93.4261 113.045 93.5398C113.377 93.6534 113.68 93.8381 113.953 94.0938C114.225 94.3466 114.443 94.6818 114.605 95.0994C114.767 95.517 114.848 96.0312 114.848 96.642V97.0682H109.802V96.1989H113.825C113.825 95.8295 113.751 95.5 113.603 95.2102C113.458 94.9205 113.251 94.6918 112.981 94.5241C112.714 94.3565 112.399 94.2727 112.035 94.2727C111.635 94.2727 111.288 94.3722 110.995 94.571C110.706 94.767 110.483 95.0227 110.326 95.3381C110.17 95.6534 110.092 95.9915 110.092 96.3523V96.9318C110.092 97.4261 110.177 97.8452 110.348 98.1889C110.521 98.5298 110.761 98.7898 111.068 98.9688C111.375 99.1449 111.731 99.233 112.137 99.233C112.402 99.233 112.64 99.196 112.853 99.1222C113.069 99.0455 113.255 98.9318 113.412 98.7812C113.568 98.6278 113.689 98.4375 113.774 98.2102L114.745 98.483C114.643 98.8125 114.471 99.1023 114.23 99.3523C113.988 99.5994 113.69 99.7926 113.335 99.9318C112.98 100.068 112.581 100.136 112.137 100.136ZM116.377 100V93.4545H117.349V94.4432H117.417C117.537 94.1193 117.752 93.8565 118.065 93.6548C118.377 93.4531 118.73 93.3523 119.122 93.3523C119.196 93.3523 119.288 93.3537 119.399 93.3565C119.51 93.3594 119.593 93.3636 119.65 93.3693V94.392C119.616 94.3835 119.538 94.3707 119.416 94.3537C119.297 94.3338 119.17 94.3239 119.037 94.3239C118.718 94.3239 118.434 94.3906 118.184 94.5241C117.937 94.6548 117.741 94.8366 117.596 95.0696C117.454 95.2997 117.383 95.5625 117.383 95.858V100H116.377ZM124.217 100V93.4545H125.189V94.4773H125.274C125.411 94.1278 125.631 93.8565 125.935 93.6634C126.239 93.4673 126.604 93.3693 127.03 93.3693C127.462 93.3693 127.821 93.4673 128.108 93.6634C128.398 93.8565 128.624 94.1278 128.786 94.4773H128.854C129.021 94.1392 129.273 93.8707 129.608 93.6719C129.943 93.4702 130.345 93.3693 130.814 93.3693C131.399 93.3693 131.878 93.5526 132.25 93.919C132.622 94.2827 132.808 94.8494 132.808 95.6193V100H131.803V95.6193C131.803 95.1364 131.67 94.7912 131.406 94.5838C131.142 94.3764 130.831 94.2727 130.473 94.2727C130.013 94.2727 129.656 94.4119 129.403 94.6903C129.151 94.9659 129.024 95.3153 129.024 95.7386V100H128.001V95.517C128.001 95.1449 127.881 94.8452 127.639 94.6179C127.398 94.3878 127.087 94.2727 126.706 94.2727C126.445 94.2727 126.2 94.3423 125.973 94.4815C125.749 94.6207 125.567 94.8139 125.428 95.0611C125.291 95.3054 125.223 95.5881 125.223 95.9091V100H124.217ZM137.306 100.136C136.715 100.136 136.197 99.9957 135.751 99.7145C135.308 99.4332 134.961 99.0398 134.711 98.5341C134.464 98.0284 134.34 97.4375 134.34 96.7614C134.34 96.0795 134.464 95.4844 134.711 94.9759C134.961 94.4673 135.308 94.0724 135.751 93.7912C136.197 93.5099 136.715 93.3693 137.306 93.3693C137.897 93.3693 138.414 93.5099 138.857 93.7912C139.303 94.0724 139.65 94.4673 139.897 94.9759C140.147 95.4844 140.272 96.0795 140.272 96.7614C140.272 97.4375 140.147 98.0284 139.897 98.5341C139.65 99.0398 139.303 99.4332 138.857 99.7145C138.414 99.9957 137.897 100.136 137.306 100.136ZM137.306 99.233C137.755 99.233 138.124 99.1179 138.414 98.8878C138.704 98.6577 138.918 98.3551 139.058 97.9801C139.197 97.6051 139.266 97.1989 139.266 96.7614C139.266 96.3239 139.197 95.9162 139.058 95.5384C138.918 95.1605 138.704 94.8551 138.414 94.6222C138.124 94.3892 137.755 94.2727 137.306 94.2727C136.857 94.2727 136.488 94.3892 136.198 94.6222C135.908 94.8551 135.694 95.1605 135.555 95.5384C135.415 95.9162 135.346 96.3239 135.346 96.7614C135.346 97.1989 135.415 97.6051 135.555 97.9801C135.694 98.3551 135.908 98.6577 136.198 98.8878C136.488 99.1179 136.857 99.233 137.306 99.233ZM142.813 96.0625V100H141.807V93.4545H142.779V94.4773H142.864C143.017 94.1449 143.25 93.8778 143.563 93.6761C143.875 93.4716 144.279 93.3693 144.773 93.3693C145.216 93.3693 145.604 93.4602 145.936 93.642C146.269 93.821 146.527 94.0938 146.712 94.4602C146.897 94.8239 146.989 95.2841 146.989 95.8409V100H145.983V95.9091C145.983 95.3949 145.85 94.9943 145.583 94.7074C145.316 94.4176 144.949 94.2727 144.483 94.2727C144.162 94.2727 143.875 94.3423 143.623 94.4815C143.373 94.6207 143.175 94.8239 143.03 95.0909C142.885 95.358 142.813 95.6818 142.813 96.0625ZM151.673 93.4545V94.3068H148.281V93.4545H151.673ZM149.27 91.8864H150.276V98.125C150.276 98.4091 150.317 98.6222 150.399 98.7642C150.484 98.9034 150.592 98.9972 150.723 99.0455C150.857 99.0909 150.997 99.1136 151.145 99.1136C151.256 99.1136 151.347 99.108 151.418 99.0966C151.489 99.0824 151.545 99.071 151.588 99.0625L151.793 99.9659C151.724 99.9915 151.629 100.017 151.507 100.043C151.385 100.071 151.23 100.085 151.043 100.085C150.759 100.085 150.48 100.024 150.207 99.902C149.938 99.7798 149.713 99.5938 149.534 99.3438C149.358 99.0938 149.27 98.7784 149.27 98.3977V91.8864ZM154.332 96.0625V100H153.327V91.2727H154.332V94.4773H154.418C154.571 94.1392 154.801 93.8707 155.108 93.6719C155.418 93.4702 155.83 93.3693 156.344 93.3693C156.79 93.3693 157.18 93.4588 157.516 93.6378C157.851 93.8139 158.111 94.0852 158.295 94.4517C158.483 94.8153 158.577 95.2784 158.577 95.8409V100H157.571V95.9091C157.571 95.3892 157.436 94.9872 157.166 94.7031C156.899 94.4162 156.528 94.2727 156.054 94.2727C155.724 94.2727 155.429 94.3423 155.168 94.4815C154.909 94.6207 154.705 94.8239 154.554 95.0909C154.406 95.358 154.332 95.6818 154.332 96.0625ZM161.746 91.2727L161.661 97.5455H160.672L160.587 91.2727H161.746ZM161.167 100.068C160.956 100.068 160.776 99.9929 160.625 99.8423C160.475 99.6918 160.4 99.5114 160.4 99.3011C160.4 99.0909 160.475 98.9105 160.625 98.7599C160.776 98.6094 160.956 98.5341 161.167 98.5341C161.377 98.5341 161.557 98.6094 161.708 98.7599C161.858 98.9105 161.934 99.0909 161.934 99.3011C161.934 99.4403 161.898 99.5682 161.827 99.6847C161.759 99.8011 161.667 99.8949 161.55 99.9659C161.436 100.034 161.309 100.068 161.167 100.068Z" fill="#525866"/>
<path d="M167.959 100V91.2727H169.276V98.8665H173.23V100H167.959ZM177.451 100.132C176.806 100.132 176.251 99.9943 175.785 99.7188C175.322 99.4403 174.964 99.0497 174.711 98.5469C174.461 98.0412 174.336 97.4489 174.336 96.7699C174.336 96.0994 174.461 95.5085 174.711 94.9972C174.964 94.4858 175.316 94.0866 175.768 93.7997C176.222 93.5128 176.754 93.3693 177.362 93.3693C177.731 93.3693 178.089 93.4304 178.435 93.5526C178.782 93.6747 179.093 93.8665 179.369 94.1278C179.644 94.3892 179.862 94.7287 180.021 95.1463C180.18 95.5611 180.259 96.0653 180.259 96.6591V97.1108H175.056V96.1562H179.011C179.011 95.821 178.942 95.5241 178.806 95.2656C178.67 95.0043 178.478 94.7983 178.231 94.6477C177.987 94.4972 177.7 94.4219 177.37 94.4219C177.012 94.4219 176.7 94.5099 176.433 94.6861C176.168 94.8594 175.964 95.0866 175.819 95.3679C175.677 95.6463 175.606 95.9489 175.606 96.2756V97.0213C175.606 97.4588 175.683 97.831 175.836 98.1378C175.992 98.4446 176.21 98.679 176.488 98.8409C176.766 99 177.092 99.0795 177.464 99.0795C177.705 99.0795 177.925 99.0455 178.124 98.9773C178.323 98.9062 178.495 98.8011 178.64 98.6619C178.785 98.5227 178.896 98.3509 178.972 98.1463L180.178 98.3636C180.082 98.7187 179.908 99.0298 179.658 99.2969C179.411 99.5611 179.1 99.767 178.725 99.9148C178.353 100.06 177.928 100.132 177.451 100.132ZM183.578 100.145C183.163 100.145 182.788 100.068 182.453 99.9148C182.118 99.7585 181.852 99.5327 181.656 99.2372C181.463 98.9418 181.366 98.5795 181.366 98.1506C181.366 97.7812 181.437 97.4773 181.579 97.2386C181.721 97 181.913 96.8111 182.154 96.6719C182.396 96.5327 182.666 96.4276 182.964 96.3565C183.262 96.2855 183.566 96.2315 183.876 96.1946C184.268 96.1491 184.586 96.1122 184.831 96.0838C185.075 96.0526 185.252 96.0028 185.363 95.9347C185.474 95.8665 185.529 95.7557 185.529 95.6023V95.5724C185.529 95.2003 185.424 94.9119 185.214 94.7074C185.007 94.5028 184.697 94.4006 184.285 94.4006C183.856 94.4006 183.518 94.4957 183.271 94.6861C183.027 94.8736 182.858 95.0824 182.764 95.3125L181.566 95.0398C181.708 94.642 181.916 94.321 182.189 94.0767C182.464 93.8295 182.781 93.6506 183.139 93.5398C183.497 93.4261 183.873 93.3693 184.268 93.3693C184.529 93.3693 184.806 93.4006 185.099 93.4631C185.395 93.5227 185.67 93.6335 185.926 93.7955C186.184 93.9574 186.396 94.1889 186.561 94.4901C186.725 94.7884 186.808 95.1761 186.808 95.6534V100H185.564V99.1051H185.512C185.43 99.2699 185.306 99.4318 185.142 99.5909C184.977 99.75 184.765 99.8821 184.507 99.9872C184.248 100.092 183.939 100.145 183.578 100.145ZM183.855 99.1222C184.207 99.1222 184.508 99.0526 184.758 98.9134C185.011 98.7741 185.203 98.5923 185.333 98.3679C185.467 98.1406 185.534 97.8977 185.534 97.6392V96.7955C185.488 96.8409 185.4 96.8835 185.27 96.9233C185.142 96.9602 184.995 96.9929 184.831 97.0213C184.666 97.0469 184.505 97.071 184.349 97.0938C184.193 97.1136 184.062 97.1307 183.957 97.1449C183.71 97.1761 183.484 97.2287 183.279 97.3026C183.078 97.3764 182.916 97.483 182.794 97.6222C182.674 97.7585 182.615 97.9403 182.615 98.1676C182.615 98.483 182.731 98.7216 182.964 98.8835C183.197 99.0426 183.494 99.1222 183.855 99.1222ZM188.505 100V93.4545H189.737V94.4943H189.805C189.924 94.142 190.134 93.8651 190.435 93.6634C190.739 93.4588 191.083 93.3565 191.467 93.3565C191.546 93.3565 191.64 93.3594 191.748 93.3651C191.859 93.3707 191.945 93.3778 192.008 93.3864V94.6051C191.957 94.5909 191.866 94.5753 191.735 94.5582C191.604 94.5384 191.474 94.5284 191.343 94.5284C191.042 94.5284 190.773 94.5923 190.538 94.7202C190.305 94.8452 190.12 95.0199 189.984 95.2443C189.847 95.4659 189.779 95.7187 189.779 96.0028V100H188.505ZM194.385 96.1136V100H193.11V93.4545H194.333V94.5199H194.414C194.565 94.1733 194.801 93.8949 195.122 93.6847C195.446 93.4744 195.853 93.3693 196.345 93.3693C196.791 93.3693 197.181 93.4631 197.517 93.6506C197.852 93.8352 198.112 94.1108 198.297 94.4773C198.481 94.8437 198.574 95.2969 198.574 95.8366V100H197.299V95.9901C197.299 95.5156 197.176 95.1449 196.929 94.8778C196.681 94.608 196.342 94.473 195.91 94.473C195.615 94.473 195.352 94.5369 195.122 94.6648C194.895 94.7926 194.714 94.9801 194.581 95.2273C194.45 95.4716 194.385 95.767 194.385 96.1136ZM203.56 91.2727H205.158L207.937 98.0568H208.039L210.817 91.2727H212.415V100H211.163V93.6847H211.082L208.508 99.9872H207.468L204.894 93.6804H204.813V100H203.56V91.2727ZM216.985 100.132C216.371 100.132 215.836 99.9915 215.378 99.7102C214.921 99.429 214.566 99.0355 214.313 98.5298C214.06 98.0241 213.934 97.4332 213.934 96.7571C213.934 96.0781 214.06 95.4844 214.313 94.9759C214.566 94.4673 214.921 94.0724 215.378 93.7912C215.836 93.5099 216.371 93.3693 216.985 93.3693C217.598 93.3693 218.134 93.5099 218.591 93.7912C219.049 94.0724 219.404 94.4673 219.657 94.9759C219.909 95.4844 220.036 96.0781 220.036 96.7571C220.036 97.4332 219.909 98.0241 219.657 98.5298C219.404 99.0355 219.049 99.429 218.591 99.7102C218.134 99.9915 217.598 100.132 216.985 100.132ZM216.989 99.0625C217.387 99.0625 217.716 98.9574 217.978 98.7472C218.239 98.5369 218.432 98.2571 218.557 97.9077C218.685 97.5582 218.749 97.1733 218.749 96.7528C218.749 96.3352 218.685 95.9517 218.557 95.6023C218.432 95.25 218.239 94.9673 217.978 94.7543C217.716 94.5412 217.387 94.4347 216.989 94.4347C216.588 94.4347 216.256 94.5412 215.992 94.7543C215.73 94.9673 215.536 95.25 215.408 95.6023C215.283 95.9517 215.221 96.3352 215.221 96.7528C215.221 97.1733 215.283 97.5582 215.408 97.9077C215.536 98.2571 215.73 98.5369 215.992 98.7472C216.256 98.9574 216.588 99.0625 216.989 99.0625ZM221.458 100V93.4545H222.69V94.4943H222.758C222.877 94.142 223.087 93.8651 223.388 93.6634C223.692 93.4588 224.036 93.3565 224.42 93.3565C224.499 93.3565 224.593 93.3594 224.701 93.3651C224.812 93.3707 224.898 93.3778 224.961 93.3864V94.6051C224.91 94.5909 224.819 94.5753 224.688 94.5582C224.558 94.5384 224.427 94.5284 224.296 94.5284C223.995 94.5284 223.727 94.5923 223.491 94.7202C223.258 94.8452 223.073 95.0199 222.937 95.2443C222.8 95.4659 222.732 95.7187 222.732 96.0028V100H221.458ZM228.65 100.132C228.005 100.132 227.45 99.9943 226.984 99.7188C226.521 99.4403 226.163 99.0497 225.91 98.5469C225.66 98.0412 225.535 97.4489 225.535 96.7699C225.535 96.0994 225.66 95.5085 225.91 94.9972C226.163 94.4858 226.515 94.0866 226.967 93.7997C227.422 93.5128 227.953 93.3693 228.561 93.3693C228.93 93.3693 229.288 93.4304 229.635 93.5526C229.981 93.6747 230.292 93.8665 230.568 94.1278C230.843 94.3892 231.061 94.7287 231.22 95.1463C231.379 95.5611 231.458 96.0653 231.458 96.6591V97.1108H226.255V96.1562H230.21C230.21 95.821 230.142 95.5241 230.005 95.2656C229.869 95.0043 229.677 94.7983 229.43 94.6477C229.186 94.4972 228.899 94.4219 228.569 94.4219C228.211 94.4219 227.899 94.5099 227.632 94.6861C227.368 94.8594 227.163 95.0866 227.018 95.3679C226.876 95.6463 226.805 95.9489 226.805 96.2756V97.0213C226.805 97.4588 226.882 97.831 227.035 98.1378C227.191 98.4446 227.409 98.679 227.687 98.8409C227.966 99 228.291 99.0795 228.663 99.0795C228.904 99.0795 229.125 99.0455 229.324 98.9773C229.522 98.9062 229.694 98.8011 229.839 98.6619C229.984 98.5227 230.095 98.3509 230.172 98.1463L231.377 98.3636C231.281 98.7187 231.108 99.0298 230.858 99.2969C230.61 99.5611 230.299 99.767 229.924 99.9148C229.552 100.06 229.127 100.132 228.65 100.132Z" fill="#525866"/>
<path d="M167 102.386H232.021V103.205H167V102.386Z" fill="#525866"/>
</g>
<defs>
<linearGradient id="paint0_linear_449_96" x1="32" y1="19.239" x2="32" y2="44.7921" gradientUnits="userSpaceOnUse">
<stop stop-color="white"/>
<stop offset="1" stop-color="#DDE2E7"/>
</linearGradient>
<radialGradient id="paint1_radial_449_96" cx="0" cy="0" r="1" gradientUnits="userSpaceOnUse" gradientTransform="translate(24.3186 43.7389) rotate(-55.1325) scale(28.0109 21.9967)">
<stop stop-color="#7A66FB"/>
<stop offset="0.440198" stop-color="#52A2F4"/>
<stop offset="0.702" stop-color="#FC5D6D"/>
<stop offset="1" stop-color="#E85E7B"/>
</radialGradient>
<radialGradient id="paint2_radial_449_96" cx="0" cy="0" r="1" gradientUnits="userSpaceOnUse" gradientTransform="translate(24.3186 43.7389) rotate(-55.1325) scale(28.0109 21.9967)">
<stop stop-color="#7A66FB"/>
<stop offset="0.440198" stop-color="#52A2F4"/>
<stop offset="0.702" stop-color="#FC5D6D"/>
<stop offset="1" stop-color="#E85E7B"/>
</radialGradient>
<linearGradient id="paint3_linear_449_96" x1="314" y1="-53.4004" x2="314" y2="77.5593" gradientUnits="userSpaceOnUse">
<stop stop-color="white"/>
<stop offset="1" stop-color="#DDE2E7"/>
</linearGradient>
<radialGradient id="paint4_radial_449_96" cx="0" cy="0" r="1" gradientUnits="userSpaceOnUse" gradientTransform="translate(274.633 72.1621) rotate(-55.1325) scale(143.556 112.733)">
<stop stop-color="#7A66FB"/>
<stop offset="0.440198" stop-color="#52A2F4"/>
<stop offset="0.702" stop-color="#FC5D6D"/>
<stop offset="1" stop-color="#E85E7B"/>
</radialGradient>
<radialGradient id="paint5_radial_449_96" cx="0" cy="0" r="1" gradientUnits="userSpaceOnUse" gradientTransform="translate(274.633 72.1621) rotate(-55.1325) scale(143.556 112.733)">
<stop stop-color="#7A66FB"/>
<stop offset="0.440198" stop-color="#52A2F4"/>
<stop offset="0.702" stop-color="#FC5D6D"/>
<stop offset="1" stop-color="#E85E7B"/>
</radialGradient>
<clipPath id="clip0_449_96">
<path d="M0 12C0 5.37259 5.37258 0 12 0H308C314.627 0 320 5.37258 320 12V112C320 118.627 314.627 124 308 124H12C5.37259 124 0 118.627 0 112V12Z" fill="white"/>
</clipPath>
</defs>
</svg>
