<svg width="24" height="24" viewBox="0 0 24 24" fill="none" xmlns="http://www.w3.org/2000/svg">
<path d="M5.92631 4.56693C9.69673 1.47667 15.2688 1.69171 18.7887 5.21205C22.5371 8.96086 22.5371 15.0396 18.7887 18.7884C15.0404 22.5372 8.96242 22.5372 5.21408 18.7884C4.06379 17.6395 3.22432 16.2171 2.7745 14.6548C2.32468 13.0924 2.27928 11.4413 2.64256 9.85654L2.71647 9.55606L4.57288 10.0457C4.11266 11.795 4.28462 13.6507 5.05846 15.2857C5.83231 16.9207 7.15836 18.2301 8.80292 18.983C10.4475 19.7359 12.305 19.8841 14.0481 19.4014C15.7912 18.9188 17.3081 17.8363 18.3313 16.3446C19.3545 14.853 19.8185 13.0481 19.6413 11.2478C19.4642 9.44761 18.6575 7.76769 17.3632 6.50412C16.0689 5.24055 14.3702 4.47444 12.5665 4.34081C10.7627 4.20718 8.96971 4.7146 7.5034 5.77365L7.29127 5.93301L8.26747 6.90933L3.85585 7.92694L4.87332 3.51476L5.92535 4.56693H5.92631ZM12.9613 6.24021V8.16022H15.361V10.0802H10.0816C9.96171 10.08 9.84604 10.1247 9.75741 10.2055C9.66878 10.2863 9.61362 10.3974 9.60278 10.5169C9.59195 10.6363 9.62622 10.7555 9.69886 10.8509C9.7715 10.9464 9.87724 11.0112 9.99526 11.0325L10.0816 11.0402H13.9212C14.5576 11.0402 15.168 11.2931 15.618 11.7432C16.0681 12.1933 16.3209 12.8037 16.3209 13.4402C16.3209 14.0768 16.0681 14.6872 15.618 15.1373C15.168 15.5874 14.5576 15.8402 13.9212 15.8402H12.9613V17.7603H11.0415V15.8402H8.64182V13.9202H13.9212C14.0411 13.9205 14.1568 13.8758 14.2454 13.795C14.334 13.7141 14.3892 13.6031 14.4 13.4836C14.4109 13.3642 14.3766 13.245 14.304 13.1495C14.2313 13.0541 14.1256 12.9893 14.0076 12.9679L13.9212 12.9602H10.0816C9.4452 12.9602 8.83483 12.7074 8.3848 12.2573C7.93476 11.8072 7.68194 11.1967 7.68194 10.5602C7.68194 9.9237 7.93476 9.31325 8.3848 8.86316C8.83483 8.41308 9.4452 8.16022 10.0816 8.16022H11.0415V6.24021H12.9613Z" fill="#525866"/>
</svg>
