<svg width="20" height="20" viewBox="0 0 20 20" fill="none" xmlns="http://www.w3.org/2000/svg">
<path d="M7.5145 4L9.46975 2.04475C9.6104 1.90415 9.80113 1.82516 10 1.82516C10.1989 1.82516 10.3896 1.90415 10.5303 2.04475L12.4855 4H15.25C15.4489 4 15.6397 4.07902 15.7803 4.21967C15.921 4.36033 16 4.55109 16 4.75V7.5145L17.9552 9.46975C18.0959 9.6104 18.1748 9.80113 18.1748 10C18.1748 10.1989 18.0959 10.3896 17.9552 10.5303L16 12.4855V15.25C16 15.4489 15.921 15.6397 15.7803 15.7803C15.6397 15.921 15.4489 16 15.25 16H12.4855L10.5303 17.9553C10.3896 18.0959 10.1989 18.1748 10 18.1748C9.80113 18.1748 9.6104 18.0959 9.46975 17.9553L7.5145 16H4.75C4.55109 16 4.36032 15.921 4.21967 15.7803C4.07902 15.6397 4 15.4489 4 15.25V12.4855L2.04475 10.5303C1.90415 10.3896 1.82516 10.1989 1.82516 10C1.82516 9.80113 1.90415 9.6104 2.04475 9.46975L4 7.5145V4.75C4 4.55109 4.07902 4.36033 4.21967 4.21967C4.36032 4.07902 4.55109 4 4.75 4H7.5145ZM5.5 5.5V8.13625L3.63625 10L5.5 11.8638V14.5H8.13625L10 16.3638L11.8638 14.5H14.5V11.8638L16.3637 10L14.5 8.13625V5.5H11.8638L10 3.63625L8.13625 5.5H5.5ZM10 13C9.20435 13 8.44129 12.6839 7.87868 12.1213C7.31607 11.5587 7 10.7957 7 10C7 9.20435 7.31607 8.44129 7.87868 7.87868C8.44129 7.31607 9.20435 7 10 7C10.7956 7 11.5587 7.31607 12.1213 7.87868C12.6839 8.44129 13 9.20435 13 10C13 10.7957 12.6839 11.5587 12.1213 12.1213C11.5587 12.6839 10.7956 13 10 13ZM10 11.5C10.3978 11.5 10.7794 11.342 11.0607 11.0607C11.342 10.7794 11.5 10.3978 11.5 10C11.5 9.60218 11.342 9.22065 11.0607 8.93934C10.7794 8.65804 10.3978 8.5 10 8.5C9.60218 8.5 9.22064 8.65804 8.93934 8.93934C8.65804 9.22065 8.5 9.60218 8.5 10C8.5 10.3978 8.65804 10.7794 8.93934 11.0607C9.22064 11.342 9.60218 11.5 10 11.5Z" fill="#525866"/>
</svg>
