<svg width="20" height="20" viewBox="0 0 20 20" fill="none" xmlns="http://www.w3.org/2000/svg">
<path d="M5.875 2.5H14.125C14.2414 2.5 14.3563 2.52711 14.4604 2.57918C14.5646 2.63125 14.6551 2.70685 14.725 2.8L16.75 5.5V16.75C16.75 16.9489 16.671 17.1397 16.5303 17.2803C16.3897 17.421 16.1989 17.5 16 17.5H4C3.80109 17.5 3.61032 17.421 3.46967 17.2803C3.32902 17.1397 3.25 16.9489 3.25 16.75V5.5L5.275 2.8C5.34486 2.70685 5.43545 2.63125 5.53959 2.57918C5.64373 2.52711 5.75857 2.5 5.875 2.5ZM15.25 7H4.75V16H15.25V7ZM14.875 5.5L13.75 4H6.25L5.125 5.5H14.875ZM7.75 8.5V10C7.75 10.5967 7.98705 11.169 8.40901 11.591C8.83097 12.0129 9.40326 12.25 10 12.25C10.5967 12.25 11.169 12.0129 11.591 11.591C12.0129 11.169 12.25 10.5967 12.25 10V8.5H13.75V10C13.75 10.9946 13.3549 11.9484 12.6517 12.6517C11.9484 13.3549 10.9946 13.75 10 13.75C9.00544 13.75 8.05161 13.3549 7.34835 12.6517C6.64509 11.9484 6.25 10.9946 6.25 10V8.5H7.75Z" fill="#335CFF"/>
</svg>
