<svg width="24" height="24" viewBox="0 0 24 24" fill="none" xmlns="http://www.w3.org/2000/svg">
<path d="M18.8 13.2439C18.8 15.1203 18.0389 16.819 16.8084 18.0488L18.0104 19.25C19.5486 17.7129 20.5 15.5894 20.5 13.2439C20.5 8.55284 16.6944 4.75 12 4.75C7.30558 4.75 3.5 8.55284 3.5 13.2439C3.5 15.5894 4.4514 17.7129 5.98959 19.25L7.19168 18.0488C5.96112 16.819 5.2 15.1203 5.2 13.2439C5.2 9.49105 8.24446 6.44878 12 6.44878C15.7556 6.44878 18.8 9.49105 18.8 13.2439ZM14.7991 9.24579L10.9741 13.0681L12.1761 14.2693L16.0011 10.447L14.7991 9.24579Z" fill="#525866"/>
</svg>
