<svg width="20" height="20" viewBox="0 0 20 20" fill="none" xmlns="http://www.w3.org/2000/svg">
<path d="M8.75437 3.81498C7.8784 3.53141 6.92613 3.92585 6.50722 4.74578L6.00361 5.73151C5.94377 5.84864 5.84852 5.9439 5.73139 6.00373L4.74566 6.50735C3.92572 6.92625 3.53129 7.87852 3.81485 8.7545L4.15577 9.80762C4.19627 9.93275 4.19627 10.0675 4.15577 10.1926L3.81485 11.2457C3.53129 12.1217 3.92572 13.074 4.74566 13.4929L5.73139 13.9965C5.84852 14.0564 5.94377 14.1516 6.00361 14.2687L6.50722 15.2545C6.92613 16.0744 7.8784 16.4689 8.75437 16.1853L9.8075 15.8444C9.93262 15.8039 10.0674 15.8039 10.1925 15.8444L11.2456 16.1853C12.1216 16.4689 13.0739 16.0744 13.4928 15.2545L13.9964 14.2687C14.0562 14.1516 14.1515 14.0564 14.2686 13.9965L15.2544 13.4929C16.0743 13.074 16.4687 12.1217 16.1852 11.2457L15.8442 10.1926C15.8037 10.0675 15.8037 9.93275 15.8442 9.80762L16.1852 8.7545C16.4687 7.87852 16.0743 6.92625 15.2544 6.50735L14.2686 6.00373C14.1515 5.9439 14.0562 5.84864 13.9964 5.73151L13.4928 4.74578C13.0739 3.92585 12.1216 3.53141 11.2456 3.81498L10.1925 4.15589C10.0674 4.19639 9.93262 4.1964 9.8075 4.15589L8.75437 3.81498ZM6.72485 9.84843L7.60874 8.9645L9.3765 10.7323L12.9121 7.19678L13.7959 8.08066L9.3765 12.5001L6.72485 9.84843Z" fill="#47C2FF"/>
</svg>
