<svg width="24" height="24" viewBox="0 0 24 24" fill="none" xmlns="http://www.w3.org/2000/svg">
<path d="M16.5027 1.821C18.8352 4.70018 20.1055 8.29456 20.1 12C20.1 15.8565 18.7527 19.398 16.5027 22.179L15.1023 21.0486C17.1758 18.4892 18.305 15.2939 18.3 12C18.3 8.5719 17.103 5.4246 15.1023 2.9514L16.5027 1.821ZM13.0017 4.6479C14.6865 6.72744 15.604 9.32362 15.6 12C15.6 14.7846 14.6271 17.3424 13.0026 19.3521L11.6022 18.2208C13.0275 16.4612 13.8036 14.2645 13.8 12C13.8 9.6438 12.9765 7.4793 11.6022 5.7792L13.0026 4.6479L13.0017 4.6479ZM9.50069 7.4757C10.5376 8.75536 11.1023 10.353 11.1 12C11.1 13.7136 10.5015 15.2877 9.50159 16.5243L8.10119 15.393C8.87858 14.4332 9.3019 13.2351 9.29999 12C9.29999 10.7148 8.85089 9.534 8.10119 8.607L9.50159 7.4757L9.50069 7.4757ZM5.99969 10.3035C6.38874 10.7832 6.60073 11.3823 6.59999 12C6.59999 12.6426 6.37499 13.233 6.00059 13.6965L3.89999 12L6.00059 10.3035L5.99969 10.3035Z" fill="#99A0AE"/>
</svg>
